<?xml version="1.0" encoding="iso-8859-1"?>
<svg xmlns="http://www.w3.org/2000/svg" xmlns:xlink="http://www.w3.org/1999/xlink" version="1.1" viewBox="0 0 30 30" enable-background="new 0 0 30 30" width="512px" height="512px">
  <g>
    <g>
      <path fill="#FFFFFF" d="m23,28h-1v-6c0-3.619-4-3.504-4-7 0-3.477 4-3.461 4-7v-6h1c0.553,0 1-0.447 1-1 0-0.553-0.447-1-1-1h-16c-0.552,0-1,0.447-1,1 0,0.553 0.448,1 1,1h1v6c0,3.516 4,3.547 4,7 0,3.497-4,3.429-4,7v6h-1c-0.552,0-1,0.447-1,1 0,0.553 0.448,1 1,1h16c0.553,0 1-0.447 1-1 0-0.553-0.447-1-1-1zm-3,0h-10v-6c0-2.305 4-2.976 4-7 0-4.036-4-4.787-4-7v-6h10v6c0,2.318-4,3.062-4,7 0,4.021 4,4.74 4,7v6zm-2-20h-6l3,3 3-3zm-7,19h8l-4-4-4,4z"/>
    </g>
  </g>
</svg>
