<svg width="153" height="86" viewBox="0 0 153 86" version="1.1" xmlns="http://www.w3.org/2000/svg" xmlns:xlink="http://www.w3.org/1999/xlink">
<title>Handshake</title>
<desc>Created using Figma</desc>
<g id="Canvas" transform="translate(-989 -1469)">
<g id="Handshake">
<g id="Vector">
<use xlink:href="#path0_fill" transform="translate(1006.16 1475.43)" fill="#E7B68A"/>
</g>
<g id="Vector">
<use xlink:href="#path1_fill" transform="matrix(-0.9337 -0.3582 0.3582 -0.9337 1005.06 1522.78)" fill="#CDD6E0"/>
</g>
<g id="Vector">
<use xlink:href="#path2_fill" transform="matrix(0.962984 -0.269413 0.269413 0.962984 1111.29 1474.61)" fill="#A773BF"/>
</g>
<g id="Group">
<g id="Vector">
<use xlink:href="#path3_fill" transform="translate(1040.06 1477.12)" fill="#FFD7B3"/>
</g>
<g id="Vector">
<use xlink:href="#path4_fill" transform="translate(1019.55 1525.53)" fill="#FFD7B3"/>
</g>
</g>
<g id="Vector">
<use xlink:href="#path5_fill" transform="translate(1006.16 1480.87)" fill="#F7AD43"/>
</g>
<g id="Vector">
<use xlink:href="#path6_fill" transform="translate(1107 1476)" fill="#FFCA55"/>
</g>
</g>
</g>
<defs>
<path id="path0_fill" d="M 89.7296 58.597C 89.7296 59.2222 90.0424 59.5349 90.0424 60.1601C 90.0424 64.5371 85.6654 68.2888 81.2881 67.0385L 78.7871 66.4133C 78.7871 66.726 78.7871 66.726 78.7871 67.0385C 78.7871 71.103 74.4101 74.2292 70.3456 72.6661L 67.8445 71.7282C 67.8445 72.0409 67.8445 72.3534 67.8445 72.6661C 67.8445 76.1051 64.4055 78.9189 60.9662 78.2938L 59.0903 77.981L 19.6968 56.7211C 19.6968 56.7211 17.5081 50.7807 12.1932 49.2176L 4.37696 46.091L -7.15592e-08 44.5279L 15.0071 5.75954L 19.384 7.63542L 24.3865 9.82405C 24.3865 9.82405 27.8255 11.0747 36.267 7.01022C 41.2694 4.50914 46.2716 2.32052 51.5868 0.444637L 52.8374 0.131892C 52.8374 0.131892 56.2765 -0.80605 59.403 2.32052L 97.2334 48.9048C 99.7345 53.9073 95.3573 60.1601 89.7296 58.597Z"/>
<path id="path1_fill" d="M 17.1966 0L 0 0L 0 46.5869L 17.1966 46.5869L 17.1966 0Z"/>
<path id="path2_fill" d="M 18.758 0L 3.66904e-06 0L 3.66904e-06 43.6512L 18.758 43.6512L 18.758 0Z"/>
<path id="path3_fill" d="M 81.4695 36.2673L 77.0925 36.8924L 73.3407 37.5176L 63.0234 47.5222C 58.0209 41.5819 53.9567 35.6418 48.3291 30.3266C 41.1383 23.4482 32.6968 17.5081 32.6968 17.5081C 25.1933 20.6347 19.2529 18.4461 19.2529 18.4461C 16.4391 24.6989 10.4987 29.0762 10.4987 29.0762C 10.4987 29.0762 10.1859 29.0762 10.1859 29.3889C 4.24553 32.5155 -2.32005 25.9499 0.806515 20.0095L 5.80897 10.9428C 6.43416 9.69216 7.68485 8.44176 9.24799 7.81627L 26.4437 0.625488C 27.6944 0.000291268 28.9448 0.000295287 30.5082 0.312747L 51.1429 4.06451L 66.7751 0.937942L 71.4648 1.78898e-06L 81.4695 36.2673Z"/>
<path id="path4_fill" d="M 43.5105 17.5612C 41.3218 15.9981 38.1956 16.9361 35.6942 19.7499C 37.5701 16.3109 37.2573 12.8715 35.069 10.9957C 32.5679 9.11977 28.1907 10.3705 25.0644 13.8095C 26.6275 10.3705 26.3151 7.24389 24.4392 5.68076C 21.9381 3.49213 16.9357 5.68076 13.4966 9.74527C 15.3725 6.30625 15.0598 2.86693 12.8715 0.99105C 10.3704 -1.19758 5.68067 0.365854 2.5541 4.43007C -0.572467 8.18184 -0.88492 13.1843 1.9289 15.0602C 4.42998 16.936 8.80724 15.6854 11.9335 11.9336C 9.74488 15.6854 9.74488 19.7499 11.9335 21.313C 14.4346 23.5016 19.437 21.313 22.8761 17.2485C 21.6254 20.3751 21.9381 23.1889 24.1267 24.752C 26.6278 26.6279 31.3175 25.3772 34.1314 21.6255C 32.8807 24.1265 33.1934 26.9404 34.7565 28.1911C 36.9452 29.7542 40.3842 28.8162 42.8853 25.69C 45.3864 22.8761 45.6991 19.1244 43.5105 17.5612Z"/>
<path id="path5_fill" d="M 19.0716 2.18863L 4.37696 40.6442L -7.15592e-08 38.7683L 14.6943 -1.78898e-06L 19.0716 2.18863Z"/>
<path id="path6_fill" d="M 15 37.3668L 10.6251 38L -1.85966e-06 0.950002L 4.6875 -1.41335e-06L 15 37.3668Z"/>
</defs>
</svg>
