<?xml version="1.0" encoding="iso-8859-1"?>
<!-- Generator: Adobe Illustrator 19.0.0, SVG Export Plug-In . SVG Version: 6.00 Build 0)  -->
<svg version="1.1" id="Layer_1" xmlns="http://www.w3.org/2000/svg" xmlns:xlink="http://www.w3.org/1999/xlink" x="0px" y="0px"
	 viewBox="0 0 512 512" style="enable-background:new 0 0 512 512;" xml:space="preserve">
<path style="fill:#F2F2F2;" d="M451.733,0H59.2C47.467,0,37.867,9.6,37.867,21.333v469.333C37.867,502.4,47.467,512,59.2,512h393.6
	c11.733,0,21.333-9.6,21.333-21.333V21.333C473.067,9.6,464.533,0,451.733,0z"/>
<rect x="80.533" y="42.667" style="fill:#54C0EB;" width="350.933" height="122.667"/>
<g>
	<polygon style="fill:#84DBFF;" points="239.467,42.667 116.8,165.333 86.933,165.333 208.533,42.667 	"/>
	<polygon style="fill:#84DBFF;" points="353.6,42.667 230.933,165.333 143.467,165.333 265.067,42.667 	"/>
</g>
<g>
	<rect x="80.533" y="206.933" style="fill:#CDD6E0;" width="91.733" height="64"/>
	<rect x="209.6" y="206.933" style="fill:#CDD6E0;" width="91.733" height="64"/>
	<rect x="338.667" y="206.933" style="fill:#CDD6E0;" width="91.733" height="64"/>
	<rect x="80.533" y="306.133" style="fill:#CDD6E0;" width="91.733" height="64"/>
	<rect x="209.6" y="306.133" style="fill:#CDD6E0;" width="91.733" height="64"/>
	<rect x="80.533" y="405.333" style="fill:#CDD6E0;" width="91.733" height="64"/>
	<rect x="209.6" y="405.333" style="fill:#CDD6E0;" width="91.733" height="64"/>
</g>
<rect x="338.667" y="306.133" style="fill:#FFD15C;" width="91.733" height="64"/>
<rect x="338.667" y="405.333" style="fill:#FF7058;" width="91.733" height="64"/>
<g>
</g>
<g>
</g>
<g>
</g>
<g>
</g>
<g>
</g>
<g>
</g>
<g>
</g>
<g>
</g>
<g>
</g>
<g>
</g>
<g>
</g>
<g>
</g>
<g>
</g>
<g>
</g>
<g>
</g>
</svg>
