<svg width="1440" height="257" viewBox="0 0 1440 257" xmlns="http://www.w3.org/2000/svg" xmlns:xlink="http://www.w3.org/1999/xlink">
  <use xlink:href="#a" transform="rotate(-180 720 128.5)" fill="#6EAAFB" fill-opacity=".1"/>
  <use xlink:href="#b" transform="rotate(-180 720 106.645)" fill="#6ECCFB" fill-opacity=".1"/>
  <use xlink:href="#c" transform="rotate(-180 720 83.64)" fill="#6EB2FB" fill-opacity=".08"/>
  <defs>
    <path id="a" d="M240 106.452C136.713 29.527 106.797 0 0 0v257h1440v-79.45s-141-65.918-263-38.937C1000.94 177.55 994 82.156 880 43.61 762.587 3.907 655.308 35.742 544.5 106.45c-132.663 84.656-223.564 60.28-304.5 0z"/>
    <path id="b" d="M304.5 140.835C201.213 67.225 106.797 0 0 0v213.29h1440v-43.394s-52.83-79.993-293.5-29.06c-99.28 21.008-139.43-50.372-224.5-84.95C784.5 0 716.308 73.175 605.5 140.837c-132.663 81.005-220.064 57.68-301 0z"/>
    <path id="c" d="M221.616 100.256C118.33 27.808 106.796 0 0 0v167.215h1440s-106.8-117.087-347.47-66.96c-99.27 20.678-187.516 0-256.207-50.127C779.063 8.34 630.25 0 519.443 66.593c-132.663 79.728-216.89 90.433-297.827 33.663z"/>
  </defs>
</svg>
