<svg xmlns="http://www.w3.org/2000/svg" viewBox="0 0 106.32 106.32"><defs><style>.cls-1{fill:none;}.cls-2{fill:#fff;}</style></defs><title>temp-logo_2</title><g id="Layer_2" data-name="Layer 2"><g id="Layer_1-2" data-name="Layer 1"><circle class="cls-1" cx="53.16" cy="53.16" r="53.16"/><path class="cls-2" d="M16.83,88.68c.3-2.46.34-2,.84-5.78.46-3.46.63-5.34.67-5.81.19-2.11.17-2.91.75-7.58,0-.16.87-7,0-11.38-.1-.5-.2-.89-.2-.89a33.18,33.18,0,0,1-2-4.63,22.47,22.47,0,0,1-1.51-6.45C15.45,40.85,23,33.24,31,34.84c4.64.93,8.43,4.75,10,9.72l.16.09H65l.16-.1a13.91,13.91,0,0,1,10-9.72c7.54-1.65,15,4.44,15.83,9.68a19,19,0,0,1-.5,6,32.61,32.61,0,0,1-1.85,6.17c-.83,2.23-.64,6.9.23,16.13.62,6.62,1.15,12.26,1.46,14.88.14,1.18.27,2.2.38,3a53.17,53.17,0,1,0-74.21.93C16.59,90.87,16.69,89.9,16.83,88.68Z"/><path class="cls-2" d="M52.2,96.51c10.52.55,17.64-9.48,18.07-16.78.16-2.74-.62-5.09-1.68-8.25A27.35,27.35,0,0,0,61.83,60a15.1,15.1,0,0,0-7.75-4.54,10,10,0,0,0-2.63-.21c-4,.26-6.76,3.21-8.31,4.91A27,27,0,0,0,37.2,72c-.89,3.32-1.51,5.65-1.24,8.41C36.63,87.2,42.67,96,52.2,96.51Zm.68-27.65c3.4-.1,8.08,1,8.27,3S57,76.6,52.91,76.59c-3.86,0-8-2.51-7.89-4.43S49.69,68.95,52.88,68.86Z"/></g></g></svg>