<svg width="1428" height="2458" viewBox="0 0 1428 2458" fill="none" xmlns="http://www.w3.org/2000/svg">
<g filter="url(#filter0_d)">
<path d="M735.556 313.045L735.56 313.053C737.388 317.058 738.557 321.294 739.065 325.765L618.444 366.608C615.547 361.817 613.062 356.709 611.08 351.457L611.077 351.45C608.062 343.636 605.958 335.627 605.153 327.214C604.447 318.955 604.562 310.899 607.435 302.94C610.869 293.759 616.1 286.201 623.814 280.604C630.649 275.71 637.97 273.311 646.059 273.607L646.064 273.607C649.472 273.713 652.736 274.264 656.318 275.409C665.485 278.507 672.517 284.678 677.091 294.036L677.096 294.046L677.1 294.055C677.793 295.399 678.404 297.058 678.93 298.574L678.953 298.641L678.985 298.704L678.997 298.728C679.065 298.859 679.152 299.028 679.246 299.171C679.343 299.317 679.532 299.574 679.861 299.726C680.237 299.9 680.602 299.855 680.873 299.761C681.111 299.679 681.328 299.542 681.511 299.413C684.091 297.698 686.566 296.06 689.321 295.006L689.325 295.005C695.165 292.746 701.228 291.742 707.338 292.553L707.347 292.554L707.357 292.555C712.11 293.09 716.569 294.518 720.59 296.786L720.598 296.79L720.606 296.795C727.31 300.412 732.304 305.768 735.556 313.045Z" fill="#F9E3AA" stroke="#F3D78E" stroke-width="2"/>
<path d="M622.46 372.793L622.449 372.776L622.437 372.76C621.598 371.615 620.816 370.361 620.012 369.071C619.821 368.765 619.629 368.457 619.434 368.148L739.238 327.814C739.33 329.404 739.35 330.979 739.37 332.579C739.092 338.606 737.869 344.478 735.411 350.11C733.279 354.71 730.437 358.941 727.316 362.954C722.839 368.654 717.536 373.283 711.925 377.702L711.92 377.705C705.675 382.686 698.847 386.336 691.702 389.764C683.52 393.475 675.108 395.791 666.408 397.36C665.549 397.493 664.698 397.59 663.824 397.689L663.815 397.69C662.946 397.789 662.054 397.891 661.147 398.032L661.12 398.036L661.093 398.042C658.445 398.605 655.729 398.709 652.904 398.817C651.777 398.86 650.632 398.904 649.467 398.978L649.46 398.979C648.709 399.032 648.051 398.889 647.671 398.575L647.654 398.561L647.637 398.548C647.325 398.313 647.012 398.077 646.699 397.842C644.264 396.013 641.811 394.169 639.671 392.168C633.357 386.106 627.308 379.999 622.46 372.793Z" fill="#F3D78E" stroke="#F3D78E" stroke-width="2"/>
</g>
<g filter="url(#filter1_d)">
<path d="M709.915 514.29L709.918 514.298C711.342 517.416 712.259 520.711 712.671 524.188L617.005 556.581C614.742 552.82 612.8 548.815 611.246 544.699L611.243 544.692C608.85 538.489 607.181 532.135 606.542 525.463C605.982 518.903 606.075 512.528 608.346 506.237C611.068 498.962 615.207 492.985 621.307 488.559C626.712 484.689 632.494 482.796 638.88 483.03L638.886 483.03C641.577 483.114 644.155 483.549 646.987 484.454C654.227 486.901 659.78 491.772 663.396 499.171L663.401 499.181L663.406 499.19C663.95 500.245 664.432 501.553 664.85 502.759L664.873 502.826L664.906 502.889L664.916 502.91C664.969 503.012 665.043 503.156 665.125 503.28C665.208 503.406 665.384 503.649 665.698 503.794C666.059 503.961 666.407 503.916 666.657 503.83C666.872 503.755 667.062 503.634 667.212 503.528C669.268 502.162 671.218 500.873 673.385 500.044L673.388 500.043C678.01 498.255 682.799 497.464 687.62 498.103L687.63 498.105L687.64 498.106C691.396 498.529 694.917 499.656 698.092 501.447L698.1 501.452L698.108 501.456C703.402 504.313 707.344 508.54 709.915 514.29Z" fill="#F9E3AA" stroke="#F3D78E" stroke-width="2"/>
<path d="M620.279 561.635L620.268 561.618L620.256 561.602C619.592 560.696 618.977 559.71 618.34 558.688C618.232 558.514 618.123 558.339 618.013 558.163L712.84 526.238C712.901 527.405 712.916 528.565 712.93 529.747C712.71 534.518 711.742 539.163 709.799 543.616C708.111 547.257 705.86 550.608 703.383 553.794C699.835 558.311 695.63 561.982 691.17 565.494L691.165 565.498C686.215 569.446 680.8 572.342 675.119 575.068C668.629 578.011 661.954 579.849 655.045 581.095C654.367 581.2 653.695 581.277 653 581.356L652.991 581.357C652.3 581.436 651.587 581.517 650.861 581.63L650.834 581.634L650.807 581.64C648.719 582.084 646.584 582.166 644.344 582.251C643.443 582.286 642.525 582.321 641.586 582.381L641.579 582.381C641.004 582.422 640.544 582.307 640.3 582.106L640.283 582.092L640.266 582.079C640.017 581.892 639.768 581.704 639.519 581.517C637.581 580.061 635.639 578.601 633.944 577.017C628.921 572.195 624.123 567.349 620.279 561.635Z" fill="#F3D78E" stroke="#F3D78E" stroke-width="2"/>
</g>
<g filter="url(#filter2_d)">
<path d="M829.629 436.6L829.632 436.607C830.949 439.492 831.801 442.54 832.187 445.755L743.078 475.928C740.983 472.438 739.182 468.723 737.741 464.905L737.739 464.898C735.509 459.118 733.954 453.2 733.359 446.985C732.837 440.872 732.925 434.939 735.037 429.085C737.572 422.312 741.425 416.75 747.1 412.632C752.13 409.03 757.507 407.271 763.446 407.488L763.451 407.488C765.954 407.566 768.352 407.971 770.987 408.813C777.72 411.089 782.885 415.618 786.25 422.502L786.254 422.512L786.259 422.521C786.764 423.501 787.212 424.716 787.602 425.841L787.625 425.908L787.658 425.971L787.668 425.991C787.717 426.086 787.788 426.223 787.866 426.341C787.945 426.462 788.119 426.702 788.428 426.845C788.785 427.011 789.129 426.965 789.373 426.881C789.582 426.808 789.765 426.692 789.907 426.592C791.825 425.317 793.636 424.12 795.649 423.35L795.653 423.349C799.954 421.685 804.409 420.949 808.891 421.544L808.901 421.545L808.911 421.546C812.404 421.94 815.679 422.989 818.632 424.654L818.64 424.659L818.648 424.663C823.572 427.32 827.238 431.251 829.629 436.6Z" fill="#F9E3AA" stroke="#F3D78E" stroke-width="2"/>
<path d="M746.16 480.687L746.149 480.67L746.137 480.654C745.519 479.812 744.948 478.896 744.355 477.944C744.268 477.805 744.181 477.665 744.093 477.524L832.358 447.808C832.41 448.864 832.424 449.915 832.437 450.987C832.231 455.428 831.33 459.75 829.522 463.894C827.951 467.282 825.856 470.403 823.548 473.371C820.245 477.577 816.328 480.997 812.17 484.271L812.166 484.274C807.556 487.951 802.511 490.649 797.216 493.19C791.171 495.932 784.952 497.645 778.514 498.805C777.883 498.903 777.258 498.974 776.609 499.048L776.6 499.049C775.957 499.123 775.291 499.198 774.613 499.304L774.585 499.308L774.558 499.314C772.617 499.727 770.635 499.803 768.548 499.882C767.707 499.915 766.849 499.948 765.969 500.003L765.962 500.004C765.433 500.041 765.025 499.935 764.817 499.763L764.8 499.749L764.783 499.736C764.551 499.561 764.318 499.386 764.086 499.211C762.279 497.853 760.471 496.494 758.894 495.02C754.21 490.524 749.74 486.009 746.16 480.687Z" fill="#F3D78E" stroke="#F3D78E" stroke-width="2"/>
</g>
<g filter="url(#filter3_d)">
<path d="M841.963 59.0157C828.165 48.8444 811.406 46.6885 798.986 52.1604C795.909 47.7135 791.961 43.5922 787.211 40.0906C768.304 26.153 743.802 27.1952 732.587 42.4084L678.867 115.278C667.652 130.491 673.905 154.208 692.81 168.145C697.56 171.646 702.664 174.201 707.823 175.823C706.268 189.307 713.287 204.68 727.084 214.851C735.578 221.113 745.199 224.325 754.24 224.612C757.19 233.165 763.103 241.404 771.598 247.667C785.396 257.838 802.157 259.995 814.578 254.522C817.654 258.969 821.601 263.089 826.351 266.591C845.258 280.528 869.76 279.486 880.976 264.271L887.559 255.342L1345.79 593.146L1386.34 538.136L928.112 200.332L934.695 191.402C945.911 176.188 939.657 152.473 920.75 138.535C916.001 135.034 910.898 132.48 905.738 130.857C907.291 117.375 900.273 102.002 886.475 91.8302C877.981 85.5686 868.36 82.3564 859.319 82.0692C856.372 73.5166 850.458 65.2785 841.963 59.0157ZM702.921 133.01L756.64 60.1403C759.987 55.5996 767.297 55.2906 772.939 59.4499C778.581 63.6091 780.446 70.6835 777.099 75.2229L723.38 148.093C720.033 152.633 712.723 152.942 707.082 148.784C701.44 144.625 699.573 137.551 702.921 133.01ZM1348.02 539.762L1336.01 556.054L901.831 235.982L913.841 219.691L1348.02 539.762ZM910.64 173.67L904.057 182.6L863.504 237.61L856.921 246.54C853.573 251.08 846.263 251.389 840.623 247.231C834.982 243.073 833.118 235.999 836.464 231.459L890.183 158.59C893.531 154.049 900.841 153.74 906.48 157.897C912.118 162.054 913.987 169.129 910.64 173.67ZM876.365 126.965L866.125 140.854L812.406 213.724L802.166 227.615C798.819 232.155 791.509 232.464 785.868 228.306C780.226 224.147 778.362 217.073 781.708 212.533L855.907 111.883C859.255 107.342 866.566 107.034 872.205 111.191C877.846 115.349 879.712 122.424 876.365 126.965ZM831.852 94.1468L757.653 194.798C754.305 199.339 746.994 199.646 741.355 195.489C735.715 191.331 733.85 184.257 737.196 179.718L747.437 165.827L801.156 92.9571L811.395 79.0677C814.742 74.527 822.052 74.2181 827.691 78.375C833.331 82.5307 835.199 89.6074 831.852 94.1468Z" fill="#F3D78E"/>
</g>
<path d="M598.627 1212C612.703 1211 636.832 1208.99 660.962 1204.99C741.395 1190.96 810.768 1156.9 872.097 1102.8C875.113 1100.8 878.13 1095.79 877.124 1092.78C871.092 1027.66 864.054 962.546 858.021 897.427C855.005 870.378 856.011 843.328 865.059 816.279C870.086 801.252 874.108 786.224 877.124 770.195C881.146 753.164 882.151 735.131 872.097 719.102C849.978 684.038 819.816 663 777.589 663C734.357 664.002 703.189 685.04 686.097 725.113C681.07 737.135 674.032 740.141 662.973 740.141C612.703 740.141 561.427 739.139 511.157 740.141C498.086 740.141 492.054 737.135 487.027 725.113C467.924 679.029 425.697 655.987 380.454 666.005C345.265 674.02 318.119 695.058 302.032 727.117C297.005 736.133 296 747.153 296 757.172C296 780.214 307.059 801.252 315.103 822.29C320.13 836.316 326.162 851.343 326.162 865.369C327.168 892.418 325.157 919.467 322.14 946.516C317.113 994.604 310.076 1043.69 304.043 1091.78C303.038 1098.79 304.043 1103.8 310.076 1108.81C390.508 1175.93 483.005 1210 598.627 1212Z" fill="#639DD4"/>
<path d="M598.627 1212C483.005 1210 390.508 1176.94 310.076 1108.82C304.043 1103.81 303.038 1098.8 304.043 1091.79C310.076 1043.7 317.113 995.619 322.14 946.532C325.157 919.485 327.168 892.437 326.162 865.389C326.162 850.363 320.13 836.338 315.103 822.313C307.059 801.276 296 780.239 296 757.199C296 747.181 297.005 736.162 302.032 727.146C319.124 695.089 345.265 674.052 380.454 666.038C426.703 656.02 467.924 680.063 487.027 725.142C492.054 737.163 498.086 741.17 511.157 740.169C561.427 739.167 612.703 739.167 662.973 740.169C675.038 740.169 681.07 737.163 686.097 725.142C703.189 685.072 735.362 664.035 777.589 663.033C819.816 662.031 850.984 684.07 872.097 719.132C882.151 735.16 881.146 753.192 877.124 770.222C874.108 785.248 870.086 801.276 865.059 816.303C855.005 842.349 855.005 869.396 858.021 897.446C864.054 962.56 871.092 1027.68 877.124 1092.79C877.124 1095.8 874.108 1100.8 872.097 1102.81C811.773 1156.9 741.395 1190.96 660.962 1204.99C637.838 1208.99 612.703 1210 598.627 1212ZM446.811 996.621C447.816 1026.67 453.849 1049.71 466.919 1070.75C501.103 1127.85 562.432 1146.89 616.724 1132.86C670.011 1118.84 732.346 1044.71 710.227 972.578C695.146 924.493 676.043 880.416 636.832 847.357C599.632 815.301 554.389 814.299 520.205 843.35C472.951 885.425 455.859 941.523 446.811 996.621Z" fill="#639DD4"/>
<path d="M447 997.289C455.012 941.168 472.037 886.049 520.107 843.959C554.157 814.896 599.223 815.898 636.277 847.967C675.334 881.038 694.362 925.133 709.384 973.237C731.416 1045.39 670.327 1120.55 616.247 1133.58C562.168 1147.61 501.079 1128.57 467.029 1071.45C455.012 1050.4 448.001 1027.35 447 997.289ZM577.19 907.095C578.192 907.095 577.19 907.095 576.189 906.092C563.17 897.073 548.148 898.075 540.136 909.099C533.126 918.118 536.13 930.144 549.149 941.168C559.164 949.185 569.179 955.198 580.195 963.215C592.212 954.196 604.23 945.177 616.247 936.157C623.258 930.144 626.262 922.127 622.256 914.11C618.25 905.09 610.239 901.082 601.226 902.084C592.212 901.082 585.202 905.09 577.19 907.095Z" fill="white"/>
<path d="M576.683 907.643C585.589 904.679 592.517 901.715 599.444 900.727C608.351 899.739 616.268 903.691 620.227 912.584C624.186 921.476 621.217 929.381 614.289 934.322C603.403 944.203 591.527 952.107 578.662 961C567.776 954.083 557.879 947.167 547.983 939.262C535.117 929.381 531.159 916.536 539.076 907.643C546.993 897.762 561.838 895.786 574.703 904.679C575.693 907.643 576.683 908.631 576.683 907.643Z" fill="#639DD4"/>
<g filter="url(#filter4_d)">
<path d="M1195.45 1702.08L1098.42 1322.25C1094 1305.17 1077.89 1293.05 1059.17 1293.05L129.988 1292C111.167 1292 94.9629 1304.22 90.7357 1321.49L5.0841 1667.72C1.96401 1680.23 5.68799 1693.3 14.847 1702.56C24.0059 1711.91 37.3922 1716.21 50.879 1714.2C51.0803 1714.2 63.9633 1712.2 83.7909 1710.19V2258.85C83.7909 2364.3 174.173 2450 285.389 2450H874.483C985.598 2450 1076.08 2364.4 1076.08 2258.85V1675.55C1099.83 1688.24 1111.81 1707.43 1118.05 1723.55L1123.39 1744.84C1128.42 1764.3 1148.35 1776.9 1169.48 1773.47C1190.32 1770.13 1204.91 1751.99 1202.8 1731.95C1202.6 1729.66 1200.99 1718.02 1195.45 1702.08ZM357.453 2272.49L258.919 2189.66L285.188 2067.31L410.092 2027.8L508.627 2110.54L482.257 2232.79L357.453 2272.49ZM415.426 1975.98L443.809 1844.18L578.476 1801.52L684.66 1890.66L656.277 2022.65L521.711 2065.3L415.426 1975.98ZM757.731 2259.42L632.927 2299.12L534.393 2216.38L560.762 2094.03L685.566 2054.42L784.101 2137.26L757.731 2259.42ZM935.677 2064.35L810.974 2103.96L712.338 2021.12L738.708 1898.96L863.512 1859.26L962.147 1942L935.677 2064.35ZM1069.34 1591.47C1056.86 1588.51 1043.37 1586.99 1029.68 1586.99C965.167 1586.99 901.557 1619.34 839.96 1650.64C806.243 1667.72 774.438 1683.85 747.364 1691.87C734.582 1695.69 719.887 1697.5 703.582 1697.5C638.966 1697.5 573.142 1667.82 572.538 1667.53C567.003 1665.05 560.964 1663.72 554.925 1663.72C548.785 1663.72 542.746 1665.05 537.11 1667.53C536.707 1667.82 487.692 1690.06 436.059 1690.06C408.784 1690.06 386.239 1683.85 368.927 1671.35C329.07 1643.01 264.354 1628.5 176.287 1628.5C146.998 1628.5 119.42 1630.22 96.5733 1632.03L161.693 1368.54L1027.37 1369.4L1085.14 1596.05C1080.31 1594.24 1074.87 1592.81 1069.34 1591.47Z" fill="#C4C4C4"/>
<path d="M187.898 1273H972.102C1029.42 1273 1076 1228.92 1076 1174.45C1076 1119.99 1029.42 1076 972.102 1076H187.898C130.578 1076 84 1119.99 84 1174.45C84 1228.92 130.578 1273 187.898 1273Z" fill="#C4C4C4"/>
</g>
<g filter="url(#filter5_d)">
<path d="M1203.45 1690.08L1106.42 1310.25C1102 1293.17 1085.89 1281.05 1067.17 1281.05L137.988 1280C119.167 1280 102.963 1292.22 98.7357 1309.49L13.0841 1655.72C9.96401 1668.23 13.688 1681.3 22.847 1690.56C32.0059 1699.91 45.3922 1704.21 58.879 1702.2C59.0803 1702.2 71.9633 1700.2 91.7909 1698.19V2246.85C91.7909 2352.3 182.173 2438 293.389 2438H882.483C993.598 2438 1084.08 2352.4 1084.08 2246.85V1663.55C1107.83 1676.24 1119.81 1695.43 1126.05 1711.55L1131.39 1732.84C1136.42 1752.3 1156.35 1764.9 1177.48 1761.47C1198.32 1758.13 1212.91 1739.99 1210.8 1719.95C1210.6 1717.66 1208.99 1706.02 1203.45 1690.08ZM365.453 2260.49L266.919 2177.66L293.188 2055.31L418.092 2015.8L516.627 2098.54L490.257 2220.79L365.453 2260.49ZM423.426 1963.98L451.809 1832.18L586.476 1789.52L692.66 1878.66L664.277 2010.65L529.711 2053.3L423.426 1963.98ZM765.731 2247.42L640.927 2287.12L542.393 2204.38L568.762 2082.03L693.566 2042.42L792.101 2125.26L765.731 2247.42ZM943.677 2052.35L818.974 2091.96L720.338 2009.12L746.708 1886.96L871.512 1847.26L970.147 1930L943.677 2052.35ZM1077.34 1579.47C1064.86 1576.51 1051.37 1574.99 1037.68 1574.99C973.167 1574.99 909.557 1607.34 847.96 1638.64C814.243 1655.72 782.438 1671.85 755.364 1679.87C742.582 1683.69 727.887 1685.5 711.582 1685.5C646.966 1685.5 581.142 1655.82 580.538 1655.53C575.003 1653.05 568.964 1651.72 562.925 1651.72C556.785 1651.72 550.746 1653.05 545.11 1655.53C544.707 1655.82 495.692 1678.06 444.059 1678.06C416.784 1678.06 394.239 1671.85 376.927 1659.35C337.07 1631.01 272.354 1616.5 184.287 1616.5C154.998 1616.5 127.42 1618.22 104.573 1620.03L169.693 1356.54L1035.37 1357.4L1093.14 1584.05C1088.31 1582.24 1082.87 1580.81 1077.34 1579.47Z" fill="#F3D78E"/>
<path d="M195.898 1261H980.102C1037.42 1261 1084 1216.92 1084 1162.45C1084 1107.99 1037.42 1064 980.102 1064H195.898C138.578 1064 92 1107.99 92 1162.45C92 1216.92 138.578 1261 195.898 1261Z" fill="#F3D78E"/>
</g>
<defs>
<filter id="filter0_d" x="584.615" y="262.515" width="166.865" height="166.449" filterUnits="userSpaceOnUse" color-interpolation-filters="sRGB">
<feFlood flood-opacity="0" result="BackgroundImageFix"/>
<feColorMatrix in="SourceAlpha" type="matrix" values="0 0 0 0 0 0 0 0 0 0 0 0 0 0 0 0 0 0 127 0"/>
<feOffset dy="4"/>
<feGaussianBlur stdDeviation="2"/>
<feColorMatrix type="matrix" values="0 0 0 0 0 0 0 0 0 0 0 0 0 0 0 0 0 0 0.1 0"/>
<feBlend mode="normal" in2="BackgroundImageFix" result="effect1_dropShadow"/>
<feBlend mode="normal" in="SourceGraphic" in2="effect1_dropShadow" result="shape"/>
</filter>
<filter id="filter1_d" x="589.18" y="474" width="134.409" height="134.079" filterUnits="userSpaceOnUse" color-interpolation-filters="sRGB">
<feFlood flood-opacity="0" result="BackgroundImageFix"/>
<feColorMatrix in="SourceAlpha" type="matrix" values="0 0 0 0 0 0 0 0 0 0 0 0 0 0 0 0 0 0 127 0"/>
<feOffset dy="4"/>
<feGaussianBlur stdDeviation="2"/>
<feColorMatrix type="matrix" values="0 0 0 0 0 0 0 0 0 0 0 0 0 0 0 0 0 0 0.1 0"/>
<feBlend mode="normal" in2="BackgroundImageFix" result="effect1_dropShadow"/>
<feBlend mode="normal" in="SourceGraphic" in2="effect1_dropShadow" result="shape"/>
</filter>
<filter id="filter2_d" x="716.831" y="399" width="125.88" height="125.575" filterUnits="userSpaceOnUse" color-interpolation-filters="sRGB">
<feFlood flood-opacity="0" result="BackgroundImageFix"/>
<feColorMatrix in="SourceAlpha" type="matrix" values="0 0 0 0 0 0 0 0 0 0 0 0 0 0 0 0 0 0 127 0"/>
<feOffset dy="4"/>
<feGaussianBlur stdDeviation="2"/>
<feColorMatrix type="matrix" values="0 0 0 0 0 0 0 0 0 0 0 0 0 0 0 0 0 0 0.1 0"/>
<feBlend mode="normal" in2="BackgroundImageFix" result="effect1_dropShadow"/>
<feBlend mode="normal" in="SourceGraphic" in2="effect1_dropShadow" result="shape"/>
</filter>
<filter id="filter3_d" x="644.286" y="0.92749" width="783.219" height="650.632" filterUnits="userSpaceOnUse" color-interpolation-filters="sRGB">
<feFlood flood-opacity="0" result="BackgroundImageFix"/>
<feColorMatrix in="SourceAlpha" type="matrix" values="0 0 0 0 0 0 0 0 0 0 0 0 0 0 0 0 0 0 127 0"/>
<feOffset dy="4"/>
<feGaussianBlur stdDeviation="2"/>
<feColorMatrix type="matrix" values="0 0 0 0 0 0 0 0 0 0 0 0 0 0 0 0 0 0 0.25 0"/>
<feBlend mode="normal" in2="BackgroundImageFix" result="effect1_dropShadow"/>
<feBlend mode="normal" in="SourceGraphic" in2="effect1_dropShadow" result="shape"/>
</filter>
<filter id="filter4_d" x="0" y="1076" width="1207" height="1382" filterUnits="userSpaceOnUse" color-interpolation-filters="sRGB">
<feFlood flood-opacity="0" result="BackgroundImageFix"/>
<feColorMatrix in="SourceAlpha" type="matrix" values="0 0 0 0 0 0 0 0 0 0 0 0 0 0 0 0 0 0 127 0"/>
<feOffset dy="4"/>
<feGaussianBlur stdDeviation="2"/>
<feColorMatrix type="matrix" values="0 0 0 0 0 0 0 0 0 0 0 0 0 0 0 0 0 0 0.15 0"/>
<feBlend mode="normal" in2="BackgroundImageFix" result="effect1_dropShadow"/>
<feBlend mode="normal" in="SourceGraphic" in2="effect1_dropShadow" result="shape"/>
</filter>
<filter id="filter5_d" x="8" y="1064" width="1207" height="1382" filterUnits="userSpaceOnUse" color-interpolation-filters="sRGB">
<feFlood flood-opacity="0" result="BackgroundImageFix"/>
<feColorMatrix in="SourceAlpha" type="matrix" values="0 0 0 0 0 0 0 0 0 0 0 0 0 0 0 0 0 0 127 0"/>
<feOffset dy="4"/>
<feGaussianBlur stdDeviation="2"/>
<feColorMatrix type="matrix" values="0 0 0 0 0 0 0 0 0 0 0 0 0 0 0 0 0 0 0.15 0"/>
<feBlend mode="normal" in2="BackgroundImageFix" result="effect1_dropShadow"/>
<feBlend mode="normal" in="SourceGraphic" in2="effect1_dropShadow" result="shape"/>
</filter>
</defs>
</svg>