<svg width="500" height="446" viewBox="0 0 500 446" fill="none" xmlns="http://www.w3.org/2000/svg">
<path d="M79.3148 417.114C80.7251 405.555 80.9131 407.717 83.2636 389.956C85.426 373.698 86.2252 364.864 86.4132 362.656C87.3064 352.742 87.2123 348.983 89.9389 327.039C89.9389 326.288 94.0287 294.148 89.9389 273.568C89.4688 271.218 88.9987 269.386 88.9987 269.386C85.3171 262.383 82.1741 255.11 79.5969 247.631C75.7457 237.935 73.3536 227.721 72.4985 217.324C72.8275 192.374 108.319 156.616 145.927 164.134C167.739 168.504 185.556 186.453 192.936 209.806L193.688 210.229H305.758L306.51 209.759C309.631 198.684 315.621 188.629 323.875 180.609C332.129 172.59 342.355 166.891 353.519 164.087C388.964 156.334 424.033 184.95 427.935 209.571C428.656 219.034 427.862 228.551 425.584 237.763C423.65 247.69 420.737 257.401 416.888 266.755C412.986 277.233 413.879 299.176 417.969 342.545C420.884 373.651 423.375 400.152 424.832 412.463C425.49 418.007 426.102 422.8 426.619 426.559C461.783 391.438 485.671 346.635 495.231 297.876C504.79 249.116 499.586 198.615 480.285 152.826C460.983 107.037 428.46 68.0415 386.873 40.8223C345.285 13.6031 296.522 -0.603006 246.816 0.0196241C197.11 0.642254 148.718 16.0654 107.826 44.3177C66.934 72.5701 35.399 112.368 17.2513 158.626C-0.89627 204.884 -4.83212 255.5 5.94684 304.005C16.7258 352.509 41.7299 396.7 77.7635 430.929C78.1866 427.405 78.6567 422.847 79.3148 417.114Z" fill="white"/>
<path fill-rule="evenodd" clip-rule="evenodd" d="M204.285 276.819C203.248 278.023 202.321 279.1 201.5 280C187.448 300.864 182.326 314.5 179 327.5C175.674 340.5 174 352 174 367C174 399.06 205.181 443.104 249.98 445.5C294.78 443.104 325.961 399.06 325.961 367C325.961 352 324.286 340.5 320.961 327.5C317.635 314.5 312.513 300.864 298.461 280C297.64 279.1 296.712 278.023 295.676 276.819C287.511 267.333 272.591 250 249.98 250C227.37 250 212.45 267.333 204.285 276.819ZM228.275 285.508C223.887 288.348 222.034 292.416 222.001 297.229C221.97 300.729 223.009 303.929 224.862 306.948C227.17 310.567 230.324 313.497 233.707 316.279C236.003 318.154 238.382 319.929 240.759 321.703C243.766 323.947 246.771 326.19 249.603 328.63C249.929 328.927 250.125 328.838 250.418 328.599C253.238 326.168 256.225 323.947 259.213 321.725C260.599 320.694 261.986 319.663 263.356 318.611C266.932 315.859 270.412 313.018 273.24 309.549C276.946 305.005 278.769 299.981 277.694 294.269C276.004 285.029 264.787 280.155 255.911 284.759C253.734 285.897 251.978 287.452 250.418 289.216C250.125 289.545 249.929 289.603 249.603 289.216C249.247 288.796 248.857 288.409 248.465 288.02C243.102 282.486 234.583 281.381 228.275 285.508Z" fill="white"/>
</svg>
