<svg width="1440" height="827" viewBox="0 0 1440 827" fill="none" xmlns="http://www.w3.org/2000/svg">
<rect width="1465" height="827" fill="#F4FAFF"/>
<path d="M1486.86 336.043H1477.32C1465.28 155.655 1328.79 14 1162.7 14C1048.29 14 947.936 81.5073 892.74 182.215C863.636 165.061 830.518 155.655 794.892 155.655C695.036 155.655 611.238 232.569 590.163 336.043H584.643C484.788 336.043 404 425.13 404 535.245C404 645.359 484.788 735 585.145 735H1486.86C1586.71 735 1668 645.912 1668 535.245C1667.5 425.13 1586.71 336.043 1486.86 336.043Z" fill="#EBF6FF"/>
<path d="M315.666 162.66H312.579C308.679 109.637 264.48 68 210.694 68C173.645 68 141.146 87.8428 123.271 117.444C113.846 112.402 103.122 109.637 91.5843 109.637C59.2477 109.637 32.1108 132.245 25.286 162.66H23.4985C-8.83815 162.66 -35 188.846 -35 221.212C-35 253.579 -8.83815 279.927 23.661 279.927H315.666C348.003 279.927 374.327 253.741 374.327 221.212C374.165 188.846 348.003 162.66 315.666 162.66Z" fill="white"/>
<path d="M625.812 393.622H620.178C613.063 296.93 532.419 221 434.283 221C366.685 221 307.388 257.185 274.775 311.167C257.579 301.972 238.011 296.93 216.961 296.93C157.96 296.93 108.448 338.158 95.9954 393.622H92.7341C33.7339 393.622 -14 441.375 -14 500.399C-14 559.423 33.7338 607.473 93.0306 607.473H625.812C684.812 607.473 732.842 559.72 732.842 500.399C732.546 441.375 684.812 393.622 625.812 393.622Z" fill="#D8EDFF"/>
</svg>
