<svg width="1395" height="1315" viewBox="0 0 1395 1315" fill="none" xmlns="http://www.w3.org/2000/svg">
<path d="M287.848 1205.44H285.313C282.112 1155.9 245.831 1117 201.68 1117C171.268 1117 144.591 1135.54 129.918 1163.19C122.182 1158.48 113.378 1155.9 103.908 1155.9C77.364 1155.9 55.0885 1177.02 49.4863 1205.44H48.0191C21.4752 1205.44 0 1229.9 0 1260.14C0 1290.38 21.4752 1315 48.1524 1315H287.848C314.391 1315 336 1290.53 336 1260.14C335.867 1229.9 314.391 1205.44 287.848 1205.44Z" fill="#F4FAFF"/>
<path d="M540.454 717.219H543.642C547.668 654.921 593.299 606 648.828 606C687.078 606 720.63 629.314 739.083 664.094C748.814 658.17 759.886 654.921 771.797 654.921C805.181 654.921 833.197 681.483 840.243 717.219H842.089C875.473 717.219 902.483 747.985 902.483 786.014C902.483 824.042 875.473 855 841.921 855H540.454C507.07 855 479.893 824.233 479.893 786.014C480.061 747.985 507.07 717.219 540.454 717.219Z" fill="#F8F8F8"/>
<path d="M1346.85 88.439H1344.31C1341.11 38.901 1304.83 0 1260.68 0C1230.27 0 1203.59 18.5388 1188.92 46.1949C1181.18 41.4843 1172.38 38.901 1162.91 38.901C1136.36 38.901 1114.09 60.023 1108.49 88.439H1107.02C1080.48 88.439 1059 112.904 1059 143.143C1059 173.383 1080.48 198 1107.15 198H1346.85C1373.39 198 1395 173.535 1395 143.143C1394.87 112.904 1373.39 88.439 1346.85 88.439Z" fill="#F4FAFF"/>
</svg>
