<svg width="1440" height="820" viewBox="0 0 1440 820" fill="none" xmlns="http://www.w3.org/2000/svg">
<rect width="1440" height="819.2" fill="white"/>
<g clip-path="url(#clip0)">
<path d="M1237.45 230.799H1234.57C1230.94 179.939 1189.8 140 1139.74 140C1105.25 140 1075 159.034 1058.36 187.428C1049.59 182.592 1039.61 179.939 1028.87 179.939C998.77 179.939 973.511 201.625 967.158 230.799H965.495C935.395 230.799 911.043 255.917 911.043 286.964C911.043 318.011 935.395 343.285 965.646 343.285H1237.45C1267.55 343.285 1292.05 318.167 1292.05 286.964C1291.9 255.917 1267.55 230.799 1237.45 230.799Z" fill="#F4FAFF"/>
<path d="M1550.87 439.248H1544.69C1536.89 329.939 1448.42 244.102 1340.77 244.102C1266.61 244.102 1201.56 285.008 1165.79 346.033C1146.92 335.639 1125.46 329.939 1102.36 329.939C1037.64 329.939 983.326 376.546 969.665 439.248H966.087C901.364 439.248 849 493.231 849 559.956C849 626.681 901.364 681 966.413 681H1550.87C1615.6 681 1668.29 627.016 1668.29 559.956C1667.96 493.231 1615.6 439.248 1550.87 439.248Z" fill="#D8EDFF"/>
</g>
<defs>
<clipPath id="clip0">
<rect width="591" height="541" fill="white" transform="translate(849 140)"/>
</clipPath>
</defs>
</svg>
