<svg width="1440" height="820" viewBox="0 0 1440 820" fill="none" xmlns="http://www.w3.org/2000/svg">
<rect width="1440" height="820" fill="white"/>
<path d="M1236.21 156.674H1233.28C1229.55 108.174 1187.56 70 1136.48 70C1101.24 70 1070.38 88.1484 1053.4 115.293C1044.47 110.677 1034.24 108.174 1023.27 108.174C992.576 108.174 966.751 128.904 960.254 156.674H958.629C927.932 156.674 903 180.611 903 210.259C903 239.906 927.851 264 958.711 264H1236.21C1266.91 264 1292 240.063 1292 210.259C1291.84 180.69 1266.99 156.674 1236.21 156.674Z" fill="#F4FAFF"/>
<path d="M1394.42 573.202C1395.39 565.555 1396.6 557.908 1397.41 550.104C1397.9 545.812 1398.22 541.521 1398.06 537.229C1398.06 534.81 1397.09 532.547 1396.28 530.362C1394.98 527.006 1393.2 523.651 1393.2 519.983C1393.2 518.422 1393.36 516.628 1394.17 515.223C1397.01 510.073 1401.3 506.795 1407.05 505.469C1414.58 503.83 1421.38 507.654 1424.54 514.833C1425.34 516.706 1426.32 517.33 1428.5 517.174C1432.31 517.096 1436.19 517.096 1440 517.096V366.256C1422.35 365.554 1408.02 360.247 1395.39 349.947C1394.42 349.166 1394.25 348.386 1394.42 347.216C1395.39 339.568 1396.6 331.921 1397.41 324.117C1397.9 319.826 1398.22 315.534 1398.06 311.242C1398.06 308.823 1397.09 306.56 1396.28 304.375C1394.98 301.019 1393.2 297.664 1393.2 293.996C1393.2 292.436 1393.36 290.641 1394.17 289.236C1397.01 284.086 1401.3 280.809 1407.05 279.482C1414.58 277.843 1421.38 281.667 1424.54 288.846C1425.34 290.719 1426.32 291.343 1428.5 291.187C1432.31 291.109 1436.19 291.109 1440 291.109V193.8C1410.69 178.584 1377.17 170 1341.62 170C1266.16 170 1199.93 208.939 1163.49 267.074C1144.31 257.164 1122.44 251.78 1098.96 251.78C1033.06 251.78 977.755 296.181 963.909 355.877H960.266C921.887 355.877 887.718 373.357 865.938 400.513C867.962 400.513 869.986 400.591 872.011 400.591C874.035 400.591 875.006 400.123 875.816 398.25C878.65 391.851 883.913 388.496 890.795 388.418C897.677 388.262 902.778 391.773 906.179 397.392C907.798 399.967 907.637 402.854 906.989 405.507C906.503 407.848 905.774 410.423 904.965 412.764C903.264 416.9 903.264 421.192 903.75 425.64C904.722 436.018 905.936 446.319 906.827 456.697C906.827 457.088 906.341 457.946 906.017 458.258C896.139 466.842 884.642 472.304 871.444 474.489C867.638 475.114 863.509 475.348 861.242 475.66C853.955 475.582 847.235 474.723 841 473.085C841.729 510.385 860.837 543.393 890.066 563.994C890.714 559.468 891.281 554.864 891.767 550.26C892.253 545.969 892.577 541.677 892.415 537.385C892.415 534.966 891.443 532.703 890.633 530.518C889.338 527.162 887.556 523.807 887.556 520.139C887.556 518.579 887.718 516.784 888.528 515.379C891.362 510.229 895.653 506.951 901.402 505.625C908.932 503.986 915.733 507.81 918.891 514.989C919.701 516.862 920.672 517.486 922.858 517.33C931.117 517.174 939.457 517.174 947.716 517.33C949.74 517.33 950.711 516.862 951.521 514.989C954.355 508.59 959.618 505.235 966.5 505.157C973.382 505.001 978.483 508.512 981.884 514.131C983.503 516.706 983.341 519.593 982.694 522.246C982.208 524.587 981.479 527.162 980.669 529.503C978.969 533.639 978.969 537.931 979.455 542.379C980.427 552.758 981.641 563.058 982.532 573.437C982.532 573.827 982.046 574.685 981.722 574.997C976.459 579.601 970.71 583.269 964.557 586H1074.43C1068.68 583.425 1063.34 580.148 1058.24 575.934C1057.27 575.153 1057.1 574.373 1057.27 573.202C1058.24 565.555 1059.45 557.908 1060.26 550.104C1060.75 545.812 1061.07 541.521 1060.91 537.229C1060.91 534.81 1059.94 532.547 1059.13 530.362C1057.83 527.006 1056.05 523.651 1056.05 519.983C1056.05 518.422 1056.21 516.628 1057.02 515.223C1059.86 510.073 1064.15 506.795 1069.9 505.469C1077.43 503.83 1084.23 507.654 1087.39 514.833C1088.19 516.706 1089.17 517.33 1091.35 517.174C1099.61 517.018 1107.95 517.018 1116.21 517.174C1118.23 517.174 1119.21 516.706 1120.02 514.833C1122.85 508.434 1128.11 505.079 1134.99 505.001C1141.88 504.845 1146.98 508.356 1150.38 513.975C1152 516.55 1151.84 519.437 1151.19 522.09C1150.7 524.431 1149.97 527.006 1149.16 529.347C1147.46 533.483 1147.46 537.775 1147.95 542.223C1148.92 552.601 1150.14 562.902 1151.03 573.28C1151.03 573.671 1150.54 574.529 1150.22 574.841C1144.95 579.445 1139.2 583.113 1133.05 585.844H1243.01C1237.26 583.269 1231.91 579.991 1226.81 575.778C1225.84 574.997 1225.68 574.217 1225.84 573.046C1226.81 565.399 1228.03 557.752 1228.84 549.948C1229.32 545.656 1229.65 541.365 1229.48 537.073C1229.48 534.654 1228.51 532.391 1227.7 530.206C1226.41 526.85 1224.63 523.495 1224.63 519.827C1224.63 518.266 1224.79 516.472 1225.6 515.067C1228.43 509.917 1232.72 506.639 1238.47 505.313C1246 503.674 1252.8 507.498 1255.96 514.677C1256.77 516.55 1257.74 517.174 1259.93 517.018C1268.19 516.862 1276.53 516.862 1284.78 517.018C1286.81 517.018 1287.78 516.55 1288.59 514.677C1291.42 508.278 1296.69 504.923 1303.57 504.844C1310.45 504.688 1315.55 508.2 1318.95 513.818C1320.57 516.394 1320.41 519.281 1319.76 521.934C1319.28 524.275 1318.55 526.85 1317.74 529.191C1316.04 533.327 1316.04 537.619 1316.52 542.067C1317.5 552.445 1318.71 562.746 1319.6 573.124C1319.6 573.515 1319.11 574.373 1318.79 574.685C1313.53 579.289 1307.78 582.957 1301.63 585.688H1411.5C1405.75 583.113 1400.41 579.835 1395.31 575.622C1394.42 575.153 1394.25 574.373 1394.42 573.202ZM1064.71 405.429C1064.23 407.77 1063.5 410.345 1062.69 412.686C1060.99 416.822 1060.99 421.114 1061.48 425.562C1062.45 435.94 1063.66 446.241 1064.55 456.619C1064.55 457.01 1064.07 457.868 1063.74 458.18C1053.86 466.764 1042.37 472.226 1029.17 474.411C1025.36 475.035 1021.23 475.27 1018.97 475.582C1000.1 475.27 984.961 470.041 971.763 459.195C970.791 458.414 970.629 457.634 970.791 456.463C971.763 448.816 972.978 441.169 973.787 433.365C974.273 429.073 974.597 424.781 974.435 420.49C974.435 418.071 973.463 415.808 972.654 413.623C971.358 410.267 969.577 406.912 969.577 403.244C969.577 401.683 969.739 399.889 970.549 398.484C973.382 393.334 977.674 390.056 983.422 388.73C990.952 387.091 997.754 390.915 1000.91 398.094C1001.72 399.967 1002.69 400.591 1004.88 400.435C1013.14 400.279 1021.48 400.279 1029.74 400.435C1031.76 400.435 1032.73 399.967 1033.54 398.094C1036.38 391.695 1041.64 388.34 1048.52 388.262C1055.4 388.105 1060.5 391.617 1063.9 397.235C1065.52 399.889 1065.44 402.698 1064.71 405.429ZM1151.27 296.181C1150.78 298.522 1150.05 301.097 1149.24 303.438C1147.54 307.574 1147.54 311.866 1148.03 316.314C1149 326.693 1150.22 336.993 1151.11 347.372C1151.11 347.762 1150.62 348.62 1150.3 348.932C1140.42 357.516 1128.92 362.978 1115.72 365.163C1111.92 365.788 1107.79 366.022 1105.52 366.334C1086.66 366.022 1071.52 360.793 1058.32 349.947C1057.35 349.166 1057.18 348.386 1057.35 347.216C1058.32 339.568 1059.53 331.921 1060.34 324.117C1060.83 319.826 1061.15 315.534 1060.99 311.242C1060.99 308.823 1060.02 306.56 1059.21 304.375C1057.91 301.019 1056.13 297.664 1056.13 293.996C1056.13 292.436 1056.29 290.641 1057.1 289.236C1059.94 284.086 1064.23 280.809 1069.98 279.482C1077.51 277.843 1084.31 281.667 1087.47 288.846C1088.28 290.719 1089.25 291.343 1091.43 291.187C1099.69 291.031 1108.03 291.031 1116.29 291.187C1118.31 291.187 1119.29 290.719 1120.1 288.846C1122.93 282.447 1128.19 279.092 1135.08 279.014C1141.96 278.858 1147.06 282.369 1150.46 287.988C1152.08 290.641 1151.92 293.528 1151.27 296.181ZM1307.62 194.815C1310.45 189.665 1314.74 186.387 1320.49 185.061C1328.02 183.422 1334.82 187.246 1337.98 194.425C1338.79 196.298 1339.76 196.922 1341.95 196.766C1350.21 196.61 1358.55 196.61 1366.81 196.766C1368.83 196.766 1369.8 196.376 1370.61 194.425C1373.44 188.026 1378.71 184.67 1385.59 184.592C1392.47 184.436 1397.57 187.948 1400.97 193.566C1402.59 196.141 1402.43 199.029 1401.78 201.682C1401.3 204.023 1400.57 206.598 1399.76 208.939C1398.06 213.075 1398.06 217.367 1398.54 221.815C1399.52 232.193 1400.73 242.494 1401.62 252.872C1401.62 253.262 1401.14 254.121 1400.81 254.433C1390.93 263.017 1379.44 268.479 1366.24 270.664C1362.43 271.288 1358.3 271.522 1356.04 271.835C1337.17 271.522 1322.03 266.294 1308.83 255.447C1307.86 254.667 1307.7 253.887 1307.86 252.716C1308.83 245.069 1310.05 237.422 1310.86 229.618C1311.34 225.326 1311.67 221.034 1311.5 216.742C1311.5 214.323 1310.53 212.06 1309.72 209.875C1308.43 206.52 1306.65 203.165 1306.65 199.497C1306.65 198.014 1306.81 196.22 1307.62 194.815ZM1284.3 365.241C1280.49 365.866 1276.36 366.1 1274.1 366.412C1255.23 366.1 1240.09 360.872 1226.89 350.025C1225.92 349.244 1225.76 348.464 1225.92 347.294C1226.89 339.646 1228.11 331.999 1228.92 324.195C1229.4 319.904 1229.73 315.612 1229.56 311.32C1229.56 308.901 1228.59 306.638 1227.78 304.453C1226.49 301.097 1224.71 297.742 1224.71 294.074C1224.71 292.514 1224.87 290.719 1225.68 289.314C1228.51 284.164 1232.8 280.887 1238.55 279.56C1246.08 277.921 1252.88 281.745 1256.04 288.924C1256.85 290.797 1257.82 291.421 1260.01 291.265C1268.27 291.109 1276.61 291.109 1284.87 291.265C1286.89 291.265 1287.86 290.797 1288.67 288.924C1291.51 282.525 1296.77 279.17 1303.65 279.092C1310.53 278.936 1315.63 282.447 1319.03 288.066C1320.65 290.641 1320.49 293.528 1319.84 296.181C1319.36 298.522 1318.63 301.097 1317.82 303.438C1316.12 307.574 1316.12 311.866 1316.61 316.314C1317.58 326.693 1318.79 336.993 1319.68 347.372C1319.68 347.762 1319.2 348.62 1318.87 348.932C1308.99 357.594 1297.5 362.978 1284.3 365.241ZM1356.12 475.582C1337.25 475.27 1322.11 470.041 1308.91 459.195C1307.94 458.414 1307.78 457.634 1307.94 456.463C1308.91 448.816 1310.13 441.169 1310.94 433.365C1311.42 429.073 1311.75 424.781 1311.58 420.49C1311.58 418.071 1310.61 415.808 1309.8 413.623C1308.51 410.267 1306.73 406.912 1306.73 403.244C1306.73 401.683 1306.89 399.889 1307.7 398.484C1310.53 393.334 1314.82 390.056 1320.57 388.73C1328.1 387.091 1334.9 390.915 1338.06 398.094C1338.87 399.967 1339.84 400.591 1342.03 400.435C1350.29 400.279 1358.63 400.279 1366.89 400.435C1368.91 400.435 1369.88 399.967 1370.69 398.094C1373.53 391.695 1378.79 388.34 1385.67 388.262C1392.55 388.105 1397.65 391.617 1401.05 397.235C1402.67 399.811 1402.51 402.698 1401.86 405.351C1401.38 407.692 1400.65 410.267 1399.84 412.608C1398.14 416.744 1398.14 421.036 1398.63 425.484C1399.6 435.862 1400.81 446.163 1401.7 456.541C1401.7 456.932 1401.22 457.79 1400.89 458.102C1391.01 466.686 1379.52 472.148 1366.32 474.333C1362.51 475.114 1358.38 475.348 1356.12 475.582Z" fill="#D8EDFF"/>
<path d="M944.518 534.949C938.558 529.874 931.325 529.718 925.762 534.324C918.212 540.883 915.431 549.706 914 558.685C914.159 563.448 915.192 567.118 917.179 570.475C922.663 579.532 932.518 582.499 941.26 580.313C949.843 578.127 959.777 566.337 956.28 554.937C953.896 547.285 950.797 540.258 944.518 534.949ZM941.896 549.784C941.101 550.721 939.988 551.502 938.955 552.283C937.683 553.22 936.332 554 935.14 555.015C935.061 555.093 935.061 555.093 934.902 555.015C933.392 553.844 931.723 552.829 930.213 551.58C929.259 550.877 928.226 550.018 927.59 549.081C927.034 548.222 926.795 547.442 926.795 546.427C926.795 545.099 927.352 544.006 928.703 543.225C930.61 542.132 933.074 542.366 934.663 543.928C934.822 544.084 934.902 544.162 934.981 544.24C935.061 544.397 935.14 544.318 935.22 544.24C935.697 543.772 936.173 543.303 936.889 542.991C939.511 541.742 942.849 543.069 943.406 545.568C943.565 547.129 943.008 548.535 941.896 549.784Z" fill="#D8EDFF"/>
<path d="M1281.23 534.949C1275.13 529.874 1267.73 529.718 1262.04 534.324C1254.31 540.883 1251.46 549.706 1250 558.685C1250.16 563.448 1251.22 567.118 1253.25 570.475C1258.86 579.532 1268.95 582.499 1277.89 580.313C1286.68 578.127 1296.84 566.337 1293.26 554.937C1290.82 547.285 1287.57 540.258 1281.23 534.949ZM1278.54 549.784C1277.73 550.721 1276.59 551.502 1275.54 552.283C1274.23 553.22 1272.85 554 1271.63 555.015C1271.55 555.093 1271.55 555.093 1271.39 555.015C1269.84 553.844 1268.13 552.829 1266.59 551.58C1265.61 550.877 1264.56 550.018 1263.91 549.081C1263.34 548.222 1263.09 547.442 1263.09 546.427C1263.09 545.099 1263.66 544.006 1265.04 543.225C1267 542.132 1269.52 542.366 1271.14 543.928C1271.31 544.084 1271.39 544.162 1271.47 544.24C1271.55 544.397 1271.63 544.318 1271.71 544.24C1272.2 543.772 1272.69 543.303 1273.42 542.991C1276.1 541.742 1279.52 543.069 1280.09 545.568C1280.25 547.129 1279.68 548.535 1278.54 549.784Z" fill="#D8EDFF"/>
<path d="M1113.23 534.949C1107.13 529.874 1099.73 529.718 1094.04 534.324C1086.31 540.883 1083.46 549.706 1082 558.685C1082.16 563.448 1083.22 567.118 1085.25 570.475C1090.86 579.532 1100.95 582.499 1109.89 580.313C1118.68 578.127 1128.84 566.337 1125.26 554.937C1122.82 547.285 1119.57 540.258 1113.23 534.949ZM1110.46 549.784C1109.65 550.721 1108.51 551.502 1107.45 552.283C1106.15 553.22 1104.77 554 1103.55 555.015C1103.47 555.093 1103.47 555.093 1103.31 555.015C1101.76 553.844 1100.05 552.829 1098.51 551.58C1097.53 550.877 1096.48 550.018 1095.82 549.081C1095.26 548.222 1095.01 547.442 1095.01 546.427C1095.01 545.099 1095.58 544.006 1096.96 543.225C1098.92 542.132 1101.44 542.366 1103.06 543.928C1103.23 544.084 1103.31 544.162 1103.39 544.24C1103.47 544.397 1103.55 544.318 1103.63 544.24C1104.12 543.772 1104.61 543.303 1105.34 542.991C1108.02 541.742 1111.44 543.069 1112.01 545.568C1112.17 547.129 1111.68 548.535 1110.46 549.784Z" fill="#D8EDFF"/>
<path d="M1026.23 417.949C1020.13 412.874 1012.73 412.718 1007.04 417.324C999.31 423.883 996.464 432.706 995 441.685C995.163 446.448 996.22 450.118 998.253 453.475C1003.86 462.532 1013.95 465.499 1022.89 463.313C1031.68 461.127 1041.84 449.337 1038.26 437.937C1035.82 430.207 1032.65 423.18 1026.23 417.949ZM1023.54 432.706C1022.73 433.643 1021.59 434.424 1020.54 435.204C1019.23 436.141 1017.85 436.922 1016.63 437.937C1016.55 438.015 1016.55 438.015 1016.39 437.937C1014.84 436.766 1013.13 435.751 1011.59 434.502C1010.61 433.799 1009.56 432.94 1008.91 432.003C1008.34 431.144 1008.09 430.364 1008.09 429.348C1008.09 428.021 1008.66 426.928 1010.04 426.147C1012 425.054 1014.52 425.288 1016.14 426.85C1016.31 427.006 1016.39 427.084 1016.47 427.162C1016.55 427.318 1016.63 427.24 1016.71 427.162C1017.2 426.694 1017.69 426.225 1018.42 425.913C1021.1 424.664 1024.52 425.991 1025.09 428.49C1025.25 430.051 1024.68 431.457 1023.54 432.706Z" fill="#D8EDFF"/>
<path d="M1359.89 259.319C1368.68 257.129 1378.84 245.319 1375.26 233.9C1372.82 226.235 1369.65 219.274 1363.23 213.956C1357.13 208.872 1349.73 208.715 1344.04 213.33C1336.31 219.9 1333.46 228.738 1332 237.732C1332.16 242.503 1333.22 246.179 1335.25 249.543C1340.95 258.459 1351.03 261.509 1359.89 259.319ZM1346.96 222.168C1348.92 221.073 1351.44 221.308 1353.06 222.872C1353.23 223.028 1353.31 223.107 1353.39 223.185C1353.47 223.341 1353.55 223.263 1353.63 223.185C1354.12 222.716 1354.61 222.246 1355.34 221.933C1358.02 220.682 1361.44 222.012 1362.01 224.514C1362.33 226.079 1361.76 227.408 1360.63 228.66C1359.81 229.598 1358.67 230.38 1357.62 231.163C1356.32 232.101 1354.93 232.883 1353.71 233.9C1353.63 233.978 1353.63 233.978 1353.47 233.9C1351.92 232.727 1350.22 231.71 1348.67 230.459C1347.7 229.755 1346.64 228.894 1345.99 227.956C1345.42 227.095 1345.17 226.313 1345.17 225.297C1345.01 224.045 1345.58 222.95 1346.96 222.168Z" fill="#D8EDFF"/>
<path d="M1113.23 308.949C1107.13 303.874 1099.73 303.718 1094.04 308.324C1086.31 314.883 1083.46 323.706 1082 332.685C1082.16 337.448 1083.22 341.118 1085.25 344.475C1090.86 353.532 1100.95 356.499 1109.89 354.313C1118.68 352.127 1128.84 340.337 1125.26 328.937C1122.82 321.207 1119.57 314.258 1113.23 308.949ZM1110.46 323.784C1109.65 324.721 1108.51 325.502 1107.45 326.283C1106.15 327.22 1104.77 328 1103.55 329.015C1103.47 329.093 1103.47 329.093 1103.31 329.015C1101.76 327.844 1100.05 326.829 1098.51 325.58C1097.53 324.877 1096.48 324.018 1095.82 323.081C1095.26 322.222 1095.01 321.442 1095.01 320.427C1095.01 319.099 1095.58 318.006 1096.96 317.225C1098.92 316.132 1101.44 316.366 1103.06 317.928C1103.23 318.084 1103.31 318.162 1103.39 318.24C1103.47 318.397 1103.55 318.318 1103.63 318.24C1104.12 317.772 1104.61 317.303 1105.34 316.991C1108.02 315.742 1111.44 317.069 1112.01 319.568C1112.17 321.129 1111.68 322.457 1110.46 323.784Z" fill="#D8EDFF"/>
<path d="M1419 558.586C1419.16 563.367 1420.22 567.05 1422.24 570.42C1426.46 577.238 1433.11 580.608 1439.92 581V554.746C1438.46 553.649 1436.92 552.708 1435.46 551.611C1434.49 550.906 1433.43 550.044 1432.78 549.103C1432.22 548.241 1431.97 547.458 1431.97 546.439C1431.97 545.107 1432.54 544.009 1433.92 543.226C1435.86 542.129 1438.38 542.364 1440 543.931V531C1436.84 531 1433.76 532.097 1431.08 534.292C1423.3 540.718 1420.46 549.574 1419 558.586Z" fill="#D8EDFF"/>
<path d="M1435.44 325.547C1434.47 324.844 1433.41 323.984 1432.76 323.047C1432.19 322.187 1431.94 321.406 1431.94 320.391C1431.94 319.063 1432.51 317.969 1433.9 317.187C1435.85 316.094 1438.37 316.328 1440 317.891V305C1436.83 305 1433.73 306.094 1431.05 308.281C1423.31 314.844 1420.47 323.672 1419 332.656C1419.16 337.422 1420.22 341.094 1422.26 344.453C1426.49 351.25 1433.16 354.609 1440 355V328.828C1438.37 327.578 1436.83 326.641 1435.44 325.547Z" fill="#D8EDFF"/>
<path d="M1363.23 417.949C1357.13 412.874 1349.73 412.718 1344.04 417.324C1336.31 423.883 1333.46 432.706 1332 441.685C1332.16 446.448 1333.22 450.118 1335.25 453.475C1340.86 462.532 1350.95 465.499 1359.89 463.313C1368.68 461.127 1378.84 449.337 1375.26 437.937C1372.82 430.207 1369.57 423.18 1363.23 417.949ZM1360.46 432.706C1359.65 433.643 1358.51 434.424 1357.45 435.204C1356.15 436.141 1354.77 436.922 1353.55 437.937C1353.47 438.015 1353.47 438.015 1353.31 437.937C1351.76 436.766 1350.05 435.751 1348.51 434.502C1347.53 433.799 1346.48 432.94 1345.82 432.003C1345.26 431.144 1345.01 430.364 1345.01 429.348C1345.01 428.021 1345.58 426.928 1346.96 426.147C1348.92 425.054 1351.44 425.288 1353.06 426.85C1353.23 427.006 1353.31 427.084 1353.39 427.162C1353.47 427.318 1353.55 427.24 1353.63 427.162C1354.12 426.694 1354.61 426.225 1355.34 425.913C1358.02 424.664 1361.44 425.991 1362.01 428.49C1362.17 430.051 1361.68 431.457 1360.46 432.706Z" fill="#D8EDFF"/>
<path d="M865.141 463.323C873.789 461.13 883.798 449.308 880.275 437.878C877.873 430.205 874.75 423.237 868.424 417.913C864.581 414.625 860.177 413.451 856.013 414.234C848.886 426.604 844.002 440.461 842 455.18C847.765 462.853 856.894 465.358 865.141 463.323ZM852.41 426.212C854.331 425.116 856.814 425.351 858.415 426.917C858.575 427.073 858.655 427.152 858.735 427.23C858.815 427.387 858.895 427.308 858.976 427.23C859.456 426.76 859.936 426.291 860.657 425.977C863.299 424.725 866.663 426.056 867.223 428.561C867.543 430.127 866.983 431.458 865.862 432.71C865.061 433.65 863.94 434.433 862.899 435.216C861.618 436.155 860.257 436.938 859.056 437.956C858.976 438.034 858.976 438.034 858.815 437.956C857.294 436.782 855.612 435.764 854.091 434.511C853.13 433.807 852.089 432.945 851.449 432.006C850.888 431.145 850.648 430.362 850.648 429.344C850.488 428.091 851.048 426.917 852.41 426.212Z" fill="#D8EDFF"/>
<path d="M1281.23 308.949C1275.13 303.874 1267.73 303.718 1262.04 308.324C1254.31 314.883 1251.46 323.706 1250 332.685C1250.16 337.448 1251.22 341.118 1253.25 344.475C1258.86 353.532 1268.95 356.499 1277.89 354.313C1286.68 352.127 1296.84 340.337 1293.26 328.937C1290.82 321.207 1287.57 314.258 1281.23 308.949ZM1278.54 323.784C1277.73 324.721 1276.59 325.502 1275.54 326.283C1274.23 327.22 1272.85 328 1271.63 329.015C1271.55 329.093 1271.55 329.093 1271.39 329.015C1269.84 327.844 1268.13 326.829 1266.59 325.58C1265.61 324.877 1264.56 324.018 1263.91 323.081C1263.34 322.222 1263.09 321.442 1263.09 320.427C1263.09 319.099 1263.66 318.006 1265.04 317.225C1267 316.132 1269.52 316.366 1271.14 317.928C1271.31 318.084 1271.39 318.162 1271.47 318.24C1271.55 318.397 1271.63 318.318 1271.71 318.24C1272.2 317.772 1272.69 317.303 1273.42 316.991C1276.1 315.742 1279.52 317.069 1280.09 319.568C1280.25 321.129 1279.68 322.457 1278.54 323.784Z" fill="#D8EDFF"/>
<path d="M982.372 573.347C981.397 562.959 980.177 552.649 979.283 542.261C978.795 537.809 978.795 533.513 980.502 529.374C981.315 527.031 981.966 524.453 982.535 522.11C983.185 519.376 983.348 516.565 981.722 513.987C978.307 508.364 973.185 504.849 966.274 505.005C959.363 505.161 954.078 508.52 951.232 514.846C950.419 516.799 949.443 517.189 947.411 517.189C939.117 517.033 930.743 517.033 922.45 517.189C920.254 517.346 919.36 516.721 918.466 514.846C915.295 507.661 908.465 503.833 900.903 505.474C895.131 506.723 890.74 510.082 887.976 515.237C887.163 516.643 887 518.439 887 520.001C887 523.672 888.789 527.031 890.09 530.389C890.903 532.576 891.878 534.841 891.878 537.262C892.041 541.558 891.716 545.854 891.228 550.15C890.74 554.758 890.09 559.366 889.52 563.896C909.359 577.799 933.751 586 960.176 586H964.322C970.583 583.188 976.274 579.517 981.559 574.987C981.803 574.675 982.372 573.816 982.372 573.347ZM940.743 580.142C931.8 582.329 921.799 579.361 916.108 570.301C913.994 566.942 913.018 563.271 912.855 558.507C914.319 549.603 917.165 540.777 924.889 534.138C930.499 529.608 937.979 529.686 944.077 534.763C950.5 540.074 953.671 547.026 956.11 554.68C959.688 566.083 949.525 577.877 940.743 580.142Z" fill="white"/>
<path d="M936.374 542.492C935.639 542.815 935.149 543.3 934.659 543.785C934.577 543.866 934.495 543.947 934.414 543.785C934.332 543.624 934.25 543.543 934.087 543.462C932.453 541.845 929.921 541.603 927.96 542.734C926.572 543.543 926 544.674 926 546.048C926 547.018 926.327 547.907 926.817 548.797C927.552 549.766 928.532 550.656 929.512 551.383C931.064 552.595 932.78 553.646 934.332 554.939C934.495 555.02 934.495 555.02 934.577 554.939C935.802 553.969 937.191 553.08 938.498 552.11C939.56 551.302 940.703 550.494 941.52 549.524C942.664 548.231 943.236 546.776 942.909 545.24C942.5 542.573 939.07 541.199 936.374 542.492Z" fill="white"/>
<path d="M1150.37 573.281C1149.4 562.903 1148.18 552.603 1147.28 542.225C1146.79 537.777 1146.79 533.486 1148.5 529.35C1149.32 527.009 1149.97 524.434 1150.53 522.094C1151.19 519.363 1151.35 516.553 1149.72 513.978C1146.31 508.36 1141.18 504.849 1134.27 505.005C1127.36 505.161 1122.08 508.516 1119.23 514.837C1118.42 516.787 1117.44 517.178 1115.41 517.178C1107.12 517.022 1098.74 517.022 1090.45 517.178C1088.25 517.334 1087.36 516.709 1086.47 514.837C1083.29 507.658 1076.46 503.835 1068.9 505.473C1063.13 506.722 1058.74 510.077 1055.98 515.227C1055.16 516.631 1055 518.426 1055 519.987C1055 523.654 1056.79 527.009 1058.09 530.365C1058.9 532.55 1059.88 534.812 1059.88 537.231C1060.04 541.523 1059.72 545.815 1059.23 550.106C1058.41 557.909 1057.2 565.556 1056.22 573.203C1056.06 574.374 1056.22 575.154 1057.2 575.934C1062.32 580.07 1067.68 583.425 1073.46 586H1132.32C1138.58 583.191 1144.27 579.523 1149.56 574.998C1149.8 574.608 1150.37 573.749 1150.37 573.281ZM1108.82 580.07C1099.88 582.254 1089.88 579.289 1084.19 570.238C1082.07 566.883 1081.1 563.215 1080.94 558.455C1082.4 549.56 1085.25 540.743 1092.97 534.11C1098.58 529.584 1106.06 529.662 1112.16 534.734C1118.58 540.04 1121.75 546.985 1124.19 554.632C1127.77 566.024 1117.52 577.807 1108.82 580.07Z" fill="white"/>
<path d="M1105.37 542.492C1104.64 542.815 1104.15 543.3 1103.66 543.785C1103.58 543.866 1103.5 543.947 1103.41 543.785C1103.33 543.624 1103.25 543.543 1103.09 543.462C1101.45 541.845 1098.92 541.603 1096.96 542.734C1095.57 543.543 1095 544.674 1095 546.048C1095 547.018 1095.33 547.907 1095.82 548.797C1096.55 549.766 1097.53 550.656 1098.51 551.383C1100.06 552.595 1101.78 553.646 1103.33 554.939C1103.5 555.02 1103.5 555.02 1103.58 554.939C1104.8 553.969 1106.19 553.08 1107.5 552.11C1108.56 551.302 1109.7 550.494 1110.52 549.524C1111.66 548.231 1112.24 546.776 1111.91 545.24C1111.5 542.573 1108.07 541.199 1105.37 542.492Z" fill="white"/>
<path d="M1273.76 592C1276.01 591.707 1280.17 591.561 1283.86 590.902C1289.94 589.951 1295.63 588.268 1301 586H1243C1252.13 589.878 1262.23 591.854 1273.76 592Z" fill="white"/>
<path d="M1319.38 573.281C1318.41 562.903 1317.21 552.603 1316.32 542.225C1315.84 537.777 1315.84 533.486 1317.53 529.35C1318.33 527.009 1318.98 524.434 1319.54 522.094C1320.18 519.363 1320.34 516.553 1318.74 513.978C1315.36 508.36 1310.29 504.849 1303.45 505.005C1296.61 505.161 1291.38 508.516 1288.56 514.837C1287.76 516.787 1286.79 517.178 1284.78 517.178C1276.57 517.022 1268.29 517.022 1260.08 517.178C1257.91 517.334 1257.02 516.709 1256.14 514.837C1253 507.658 1246.24 503.835 1238.76 505.473C1233.05 506.722 1228.7 510.077 1225.97 515.227C1225.16 516.631 1225 518.426 1225 519.987C1225 523.654 1226.77 527.009 1228.06 530.365C1228.86 532.55 1229.83 534.812 1229.83 537.231C1229.99 541.523 1229.67 545.815 1229.18 550.106C1228.38 557.909 1227.17 565.556 1226.21 573.203C1226.05 574.374 1226.21 575.154 1227.17 575.934C1232.24 580.07 1237.55 583.425 1243.26 586H1301.52C1307.71 583.191 1313.34 579.523 1318.57 574.998C1318.9 574.608 1319.38 573.749 1319.38 573.281ZM1278.26 580.07C1269.41 582.254 1259.52 579.289 1253.88 570.238C1251.79 566.883 1250.83 563.215 1250.67 558.455C1252.11 549.56 1254.93 540.743 1262.57 534.11C1268.13 529.584 1275.53 529.662 1281.56 534.734C1287.92 540.04 1291.06 546.985 1293.47 554.632C1297.01 566.024 1286.95 577.807 1278.26 580.07Z" fill="white"/>
<path d="M1273.37 542.492C1272.64 542.815 1272.15 543.3 1271.66 543.785C1271.58 543.866 1271.5 543.947 1271.41 543.785C1271.33 543.624 1271.25 543.543 1271.09 543.462C1269.45 541.845 1266.92 541.603 1264.96 542.734C1263.57 543.543 1263 544.674 1263 546.048C1263 547.018 1263.33 547.907 1263.82 548.797C1264.55 549.766 1265.53 550.656 1266.51 551.383C1268.06 552.595 1269.78 553.646 1271.33 554.939C1271.5 555.02 1271.5 555.02 1271.58 554.939C1272.8 553.969 1274.19 553.08 1275.5 552.11C1276.56 551.302 1277.7 550.494 1278.52 549.524C1279.66 548.231 1280.24 546.776 1279.91 545.24C1279.5 542.573 1276.07 541.199 1273.37 542.492Z" fill="white"/>
<path d="M1439 580.844C1432.31 580.453 1425.79 577.094 1421.65 570.297C1419.58 566.938 1418.63 563.266 1418.47 558.501C1419.9 549.594 1422.69 540.766 1430.25 534.126C1432.87 531.939 1435.9 530.845 1439 530.845V517.017C1435.18 517.017 1431.44 517.017 1427.7 517.095C1425.55 517.251 1424.67 516.626 1423.8 514.751C1420.7 507.564 1414.01 503.736 1406.61 505.377C1400.96 506.627 1396.66 509.986 1393.95 515.142C1393.16 516.548 1393 518.345 1393 519.908C1393 523.579 1394.75 526.939 1396.02 530.298C1396.82 532.485 1397.78 534.751 1397.78 537.173C1397.93 541.47 1397.62 545.766 1397.14 550.063C1396.34 557.876 1395.15 565.532 1394.19 573.188C1394.03 574.36 1394.19 575.141 1395.15 575.922C1400.16 580.063 1405.42 583.422 1411.07 586H1439V580.844V580.844Z" fill="white"/>
<path d="M1433.71 542.65C1432.5 543.422 1432 544.503 1432 545.816C1432 546.742 1432.29 547.591 1432.71 548.441C1433.36 549.367 1434.21 550.217 1435.07 550.912C1436.36 551.993 1437.71 552.996 1439 554V543.268C1437.57 541.878 1435.36 541.569 1433.71 542.65Z" fill="white"/>
<path d="M1134.27 279.001C1127.36 279.157 1122.08 282.5 1119.23 288.797C1118.42 290.741 1117.44 291.13 1115.41 291.13C1107.12 290.974 1098.74 290.974 1090.45 291.13C1088.25 291.285 1087.36 290.663 1086.47 288.797C1083.29 281.645 1076.46 277.835 1068.9 279.468C1063.13 280.712 1058.74 284.055 1055.98 289.186C1055.16 290.586 1055 292.374 1055 293.929C1055 297.583 1056.79 300.926 1058.09 304.269C1058.9 306.446 1059.88 308.701 1059.88 311.111C1060.04 315.387 1059.72 319.663 1059.23 323.939C1058.41 331.714 1057.2 339.333 1056.22 346.952C1056.06 348.118 1056.22 348.896 1057.2 349.673C1070.45 360.402 1085.65 365.689 1104.6 366C1106.87 365.689 1111.1 365.534 1114.84 364.834C1128.09 362.657 1139.64 357.215 1149.56 348.662C1149.88 348.352 1150.37 347.496 1150.37 347.108C1149.4 336.767 1148.18 326.505 1147.28 316.164C1146.79 311.733 1146.79 307.457 1148.5 303.336C1149.32 301.004 1149.97 298.438 1150.53 296.106C1151.19 293.384 1151.35 290.586 1149.72 288.02C1146.31 282.422 1141.18 278.924 1134.27 279.001ZM1108.99 353.871C1100.04 356.048 1090.04 353.094 1084.35 344.075C1082.24 340.732 1081.26 337.078 1081.1 332.336C1082.56 323.472 1085.41 314.687 1093.13 308.079C1098.74 303.569 1106.22 303.647 1112.32 308.701C1118.74 313.987 1121.92 320.907 1124.35 328.526C1127.93 339.955 1117.69 351.695 1108.99 353.871Z" fill="white"/>
<path d="M1105.37 316.492C1104.64 316.815 1104.15 317.3 1103.66 317.785C1103.58 317.866 1103.5 317.947 1103.41 317.785C1103.33 317.624 1103.25 317.543 1103.09 317.462C1101.45 315.845 1098.92 315.603 1096.96 316.734C1095.57 317.543 1095 318.674 1095 320.048C1095 321.018 1095.33 321.907 1095.82 322.796C1096.55 323.766 1097.53 324.656 1098.51 325.383C1100.06 326.595 1101.78 327.646 1103.33 328.939C1103.5 329.02 1103.5 329.02 1103.58 328.939C1104.8 327.969 1106.19 327.08 1107.5 326.11C1108.56 325.302 1109.7 324.494 1110.52 323.524C1111.66 322.231 1112.24 320.776 1111.91 319.24C1111.5 316.573 1108.07 315.199 1105.37 316.492Z" fill="white"/>
<path d="M1319.38 347.031C1318.41 336.691 1317.21 326.428 1316.32 316.089C1315.84 311.657 1315.84 307.381 1317.53 303.261C1318.33 300.929 1318.98 298.363 1319.54 296.031C1320.18 293.31 1320.34 290.511 1318.74 287.945C1315.36 282.348 1310.29 278.849 1303.45 279.005C1296.61 279.16 1291.38 282.503 1288.56 288.801C1287.76 290.744 1286.79 291.133 1284.78 291.133C1276.57 290.977 1268.29 290.977 1260.08 291.133C1257.91 291.288 1257.02 290.666 1256.14 288.801C1253 281.648 1246.24 277.839 1238.76 279.471C1233.05 280.715 1228.7 284.058 1225.97 289.189C1225.16 290.589 1225 292.377 1225 293.932C1225 297.586 1226.77 300.929 1228.06 304.272C1228.86 306.448 1229.83 308.703 1229.83 311.113C1229.99 315.389 1229.67 319.665 1229.18 323.941C1228.38 331.715 1227.17 339.334 1226.21 346.953C1226.05 348.119 1226.21 348.896 1227.17 349.674C1240.29 360.402 1255.33 365.689 1274.08 366C1276.33 365.689 1280.52 365.534 1284.22 364.834C1297.33 362.657 1308.76 357.215 1318.57 348.663C1318.9 348.274 1319.38 347.419 1319.38 347.031ZM1278.26 353.716C1269.41 355.893 1259.52 352.939 1253.88 343.921C1251.79 340.578 1250.83 336.924 1250.67 332.182C1252.11 323.319 1254.93 314.534 1262.57 307.926C1268.13 303.416 1275.53 303.494 1281.56 308.548C1287.92 313.834 1291.06 320.753 1293.47 328.372C1297.01 339.8 1286.95 351.54 1278.26 353.716Z" fill="white"/>
<path d="M1273.37 316.492C1272.64 316.815 1272.15 317.3 1271.66 317.785C1271.58 317.866 1271.5 317.947 1271.41 317.785C1271.33 317.624 1271.25 317.543 1271.09 317.462C1269.45 315.845 1266.92 315.603 1264.96 316.734C1263.57 317.543 1263 318.674 1263 320.048C1263 321.018 1263.33 321.907 1263.82 322.796C1264.55 323.766 1265.53 324.656 1266.51 325.383C1268.06 326.595 1269.78 327.646 1271.33 328.939C1271.5 329.02 1271.5 329.02 1271.58 328.939C1272.8 327.969 1274.19 327.08 1275.5 326.11C1276.56 325.302 1277.7 324.494 1278.52 323.524C1279.66 322.231 1280.24 320.776 1279.91 319.24C1279.5 316.573 1276.07 315.199 1273.37 316.492Z" fill="white"/>
<path d="M1424.47 288.723C1421.3 281.557 1414.47 277.74 1406.9 279.376C1401.13 280.622 1396.74 283.972 1393.98 289.113C1393.16 290.515 1393 292.307 1393 293.865C1393 297.526 1394.79 300.876 1396.09 304.226C1396.9 306.407 1397.88 308.666 1397.88 311.081C1398.04 315.365 1397.72 319.65 1397.23 323.934C1396.42 331.724 1395.2 339.358 1394.22 346.993C1394.06 348.161 1394.22 348.94 1395.2 349.719C1407.8 360.002 1422.19 365.299 1440 366V354.549C1433.17 354.159 1426.5 350.81 1422.27 344.032C1420.16 340.683 1419.18 337.021 1419.02 332.269C1420.48 323.389 1423.33 314.586 1431.06 307.965C1433.74 305.783 1436.83 304.693 1440 304.693V290.905C1436.1 290.905 1432.28 290.905 1428.45 290.983C1426.26 291.216 1425.28 290.593 1424.47 288.723Z" fill="white"/>
<path d="M1433.71 316.672C1432.5 317.442 1432 318.521 1432 319.831C1432 320.756 1432.29 321.604 1432.71 322.451C1433.36 323.376 1434.21 324.224 1435.07 324.918C1436.36 325.996 1437.71 326.998 1439 328V317.288C1437.57 315.824 1435.36 315.593 1433.71 316.672Z" fill="white"/>
<path opacity="0.6" d="M1048.27 388.005C1041.36 388.16 1036.08 391.503 1033.23 397.801C1032.42 399.744 1031.44 400.133 1029.41 400.133C1021.12 399.977 1012.74 399.977 1004.45 400.133C1002.25 400.288 1001.36 399.666 1000.47 397.801C997.295 390.648 990.465 386.839 982.903 388.471C977.131 389.715 972.74 393.058 969.976 398.189C969.163 399.589 969 401.377 969 402.932C969 406.586 970.789 409.929 972.09 413.272C972.903 415.448 973.878 417.703 973.878 420.113C974.041 424.389 973.716 428.665 973.228 432.941C972.415 440.715 971.195 448.334 970.22 455.953C970.057 457.119 970.22 457.896 971.195 458.674C984.448 469.402 999.652 474.689 1018.6 475C1020.87 474.689 1025.1 474.534 1028.84 473.834C1042.09 471.657 1053.64 466.215 1063.56 457.663C1063.88 457.352 1064.37 456.497 1064.37 456.108C1063.4 445.768 1062.18 435.506 1061.28 425.166C1060.79 420.735 1060.79 416.459 1062.5 412.339C1063.32 410.006 1063.97 407.441 1064.53 405.109C1065.19 402.388 1065.35 399.589 1063.72 397.023C1060.31 391.348 1055.18 387.849 1048.27 388.005ZM1022.91 462.872C1013.96 465.049 1003.96 462.095 998.27 453.076C996.156 449.733 995.181 446.079 995.018 441.337C996.482 432.474 999.327 423.689 1007.05 417.081C1012.66 412.572 1020.14 412.65 1026.24 417.703C1032.66 422.99 1035.83 429.909 1038.27 437.528C1041.85 448.956 1031.69 460.695 1022.91 462.872Z" fill="#8AB8E2"/>
<path opacity="0.6" d="M1018.37 425.492C1017.64 425.815 1017.15 426.3 1016.66 426.785C1016.58 426.866 1016.5 426.947 1016.41 426.785C1016.33 426.624 1016.25 426.543 1016.09 426.462C1014.45 424.845 1011.92 424.603 1009.96 425.734C1008.57 426.543 1008 427.674 1008 429.048C1008 430.018 1008.33 430.907 1008.82 431.796C1009.55 432.766 1010.53 433.656 1011.51 434.383C1013.06 435.595 1014.78 436.646 1016.33 437.939C1016.5 438.02 1016.5 438.02 1016.58 437.939C1017.8 436.969 1019.19 436.08 1020.5 435.11C1021.56 434.302 1022.7 433.494 1023.52 432.524C1024.66 431.231 1025.24 429.776 1024.91 428.24C1024.5 425.573 1021.15 424.199 1018.37 425.492Z" fill="#8AB8E2"/>
<path opacity="0.6" d="M871.193 473.91C884.317 471.729 895.75 466.277 905.573 457.71C905.895 457.399 906.378 456.542 906.378 456.152C905.412 445.794 904.204 435.513 903.319 425.155C902.836 420.716 902.836 416.432 904.527 412.304C905.332 409.968 905.976 407.398 906.539 405.061C907.184 402.335 907.345 399.532 905.734 396.962C902.353 391.354 897.28 387.849 890.436 388.005C883.593 388.161 878.359 391.51 875.541 397.818C874.736 399.765 873.77 400.155 871.757 400.155C869.744 400.155 867.731 400.077 865.718 400.077C862.176 404.516 858.955 409.189 856.137 414.018C860.324 413.239 864.752 414.485 868.617 417.678C874.977 422.974 878.118 429.906 880.533 437.538C884.076 448.909 874.011 460.67 865.316 462.85C857.023 464.953 847.763 462.461 842.047 454.673C841.322 459.735 841 464.953 841 470.171C841 470.95 841 471.651 841 472.43C847.2 474.065 853.882 474.922 861.129 475C863.303 474.766 867.409 474.533 871.193 473.91Z" fill="#8AB8E2"/>
<path opacity="0.6" d="M853.641 434.361C855.178 435.581 856.877 436.638 858.414 437.939C858.576 438.02 858.576 438.02 858.657 437.939C859.871 436.963 861.246 436.069 862.541 435.093C863.592 434.279 864.725 433.466 865.534 432.49C866.667 431.189 867.233 429.725 866.91 428.18C866.343 425.578 863.026 424.195 860.275 425.496C859.547 425.822 859.062 426.31 858.576 426.798C858.495 426.879 858.414 426.96 858.333 426.798C858.253 426.635 858.172 426.554 858.01 426.472C856.392 424.846 853.884 424.602 851.942 425.74C850.566 426.554 850 427.692 850 429.075C850 430.051 850.324 430.945 850.809 431.84C851.618 432.816 852.67 433.71 853.641 434.361Z" fill="#8AB8E2"/>
<path opacity="0.6" d="M1401.37 456.031C1400.4 445.691 1399.18 435.428 1398.28 425.089C1397.79 420.657 1397.79 416.381 1399.5 412.261C1400.32 409.929 1400.97 407.363 1401.53 405.031C1402.19 402.31 1402.35 399.511 1400.72 396.945C1397.31 391.348 1392.18 387.849 1385.27 388.005C1378.36 388.16 1373.08 391.503 1370.23 397.801C1369.42 399.744 1368.44 400.133 1366.41 400.133C1358.12 399.977 1349.74 399.977 1341.45 400.133C1339.25 400.288 1338.36 399.666 1337.47 397.801C1334.29 390.648 1327.46 386.839 1319.9 388.471C1314.13 389.715 1309.74 393.058 1306.98 398.189C1306.16 399.589 1306 401.377 1306 402.932C1306 406.586 1307.79 409.929 1309.09 413.272C1309.9 415.448 1310.88 417.703 1310.88 420.113C1311.04 424.389 1310.72 428.665 1310.23 432.941C1309.41 440.715 1308.2 448.334 1307.22 455.953C1307.06 457.119 1307.22 457.896 1308.2 458.674C1321.45 469.402 1336.65 474.689 1355.6 475C1357.87 474.689 1362.1 474.534 1365.84 473.834C1379.09 471.657 1390.64 466.215 1400.56 457.663C1400.8 457.352 1401.37 456.497 1401.37 456.031ZM1359.74 462.794C1350.8 464.971 1340.8 462.017 1335.11 452.999C1332.99 449.656 1332.02 446.002 1331.86 441.259C1333.32 432.397 1336.16 423.611 1343.89 417.003C1349.5 412.494 1356.98 412.572 1363.08 417.625C1369.5 422.912 1372.67 429.831 1375.11 437.45C1378.77 448.878 1368.52 460.617 1359.74 462.794Z" fill="#8AB8E2"/>
<path opacity="0.6" d="M1354.76 425.492C1354.07 425.815 1353.61 426.3 1353.15 426.785C1353.07 426.866 1353 426.947 1352.92 426.785C1352.84 426.624 1352.76 426.543 1352.61 426.462C1351.07 424.845 1348.69 424.603 1346.85 425.734C1345.54 426.543 1345 427.674 1345 429.048C1345 430.018 1345.31 430.907 1345.77 431.796C1346.46 432.766 1347.38 433.656 1348.31 434.383C1349.77 435.595 1351.38 436.646 1352.84 437.939C1353 438.02 1353 438.02 1353.07 437.939C1354.23 436.969 1355.53 436.08 1356.76 435.11C1357.76 434.302 1358.84 433.494 1359.61 432.524C1360.68 431.231 1361.22 429.776 1360.91 428.24C1360.53 425.573 1357.3 424.199 1354.76 425.492Z" fill="#8AB8E2"/>
<path opacity="0.6" d="M1310.88 216.433C1311.04 220.761 1310.72 225.09 1310.23 229.419C1309.41 237.29 1308.2 245.003 1307.22 252.717C1307.06 253.897 1307.22 254.684 1308.2 255.471C1321.45 266.333 1336.65 271.685 1355.6 272C1357.87 271.685 1362.1 271.528 1365.84 270.819C1379.09 268.616 1390.64 263.106 1400.56 254.448C1400.88 254.133 1401.37 253.268 1401.37 252.874C1400.4 242.406 1399.18 232.017 1398.28 221.548C1397.79 217.062 1397.79 212.733 1399.5 208.562C1400.32 206.201 1400.97 203.603 1401.53 201.242C1402.19 198.487 1402.35 195.654 1400.72 193.056C1397.31 187.389 1392.18 183.848 1385.27 184.005C1378.36 184.162 1373.08 187.547 1370.23 193.922C1369.42 195.89 1368.44 196.283 1366.41 196.283C1358.12 196.126 1349.74 196.126 1341.45 196.283C1339.25 196.441 1338.36 195.811 1337.47 193.922C1334.29 186.681 1327.46 182.824 1319.9 184.477C1314.13 185.737 1309.74 189.121 1306.98 194.316C1306.16 195.732 1306 197.543 1306 199.117C1306 202.816 1307.79 206.201 1309.09 209.585C1309.9 211.789 1310.88 213.993 1310.88 216.433ZM1344.05 213.363C1349.66 208.798 1357.14 208.877 1363.24 213.993C1369.66 219.345 1372.83 226.35 1375.27 234.063C1378.85 245.554 1368.69 257.439 1359.91 259.643C1350.96 261.847 1340.96 258.856 1335.27 249.726C1333.16 246.341 1332.18 242.642 1332.02 237.841C1333.48 228.868 1336.33 219.974 1344.05 213.363Z" fill="#8AB8E2"/>
<path opacity="0.6" d="M1348.43 230.641C1349.87 231.767 1351.47 232.743 1352.92 233.944C1353.07 234.019 1353.07 234.019 1353.15 233.944C1354.29 233.043 1355.58 232.217 1356.8 231.316C1357.79 230.566 1358.86 229.815 1359.62 228.914C1360.69 227.713 1361.22 226.362 1360.92 224.935C1360.38 222.533 1357.26 221.257 1354.67 222.458C1353.99 222.759 1353.53 223.209 1353.07 223.659C1353 223.734 1352.92 223.809 1352.84 223.659C1352.77 223.509 1352.69 223.434 1352.54 223.359C1351.02 221.858 1348.66 221.632 1346.83 222.683C1345.53 223.434 1345 224.485 1345 225.761C1345 226.662 1345.3 227.488 1345.76 228.314C1346.52 229.214 1347.51 229.965 1348.43 230.641Z" fill="#8AB8E2"/>
<g opacity="0.76">
<path opacity="0.76" d="M1194.39 366.138C1193.58 365.669 1192.61 365.435 1191.64 365.435C1189.86 365.435 1188.24 366.216 1187.18 367.466C1186.13 366.216 1184.51 365.435 1182.73 365.435C1181.76 365.435 1180.79 365.669 1179.98 366.138C1178.2 367.075 1176.98 368.871 1176.98 370.98C1176.98 371.605 1177.07 372.152 1177.31 372.698C1178.28 376.994 1187.18 382.383 1187.18 382.383C1187.18 382.383 1196.09 376.994 1197.06 372.698C1197.22 372.152 1197.38 371.605 1197.38 370.98C1197.38 368.871 1196.17 367.075 1194.39 366.138Z" fill="#EC1C24"/>
</g>
<path d="M1216.57 387.225C1209.69 387.381 1204.43 390.739 1201.59 397.065C1200.78 399.018 1199.81 399.408 1197.79 399.408C1189.53 399.252 1181.19 399.252 1172.94 399.408C1170.75 399.565 1169.86 398.94 1168.97 397.065C1165.81 389.88 1159.01 386.053 1151.48 387.693C1145.74 388.943 1141.36 392.301 1138.61 397.456C1137.8 398.862 1137.64 400.658 1137.64 402.22C1137.64 405.891 1139.42 409.249 1140.72 412.607C1141.53 414.794 1142.5 417.059 1142.5 419.48C1142.66 423.775 1142.34 428.071 1141.85 432.366C1141.04 440.176 1139.83 447.83 1138.85 455.484C1138.69 456.655 1138.85 457.436 1139.83 458.217C1153.02 468.995 1168.16 474.305 1187.02 474.618C1189.29 474.305 1193.5 474.149 1197.22 473.446C1210.42 471.26 1221.91 465.793 1231.79 457.202C1232.11 456.889 1232.6 456.03 1232.6 455.64C1231.63 445.253 1230.41 434.943 1229.52 424.556C1229.04 420.105 1229.04 415.809 1230.74 411.67C1231.55 409.327 1232.2 406.75 1232.76 404.407C1233.41 401.673 1233.57 398.862 1231.95 396.284C1228.55 390.583 1223.45 387.069 1216.57 387.225ZM1191.31 462.434C1182.41 464.621 1172.45 461.653 1166.78 452.594C1164.68 449.236 1163.71 445.565 1163.55 440.801C1165 431.898 1167.84 423.072 1175.53 416.434C1181.11 411.904 1188.56 411.982 1194.63 417.059C1201.03 422.369 1204.19 429.32 1206.61 436.974C1210.18 448.455 1200.06 460.248 1191.31 462.434Z" fill="#599AF2"/>
<path d="M1186.78 425.181C1186.05 425.493 1185.57 425.962 1185.08 426.431C1185 426.509 1184.92 426.587 1184.84 426.431C1184.76 426.274 1184.67 426.196 1184.51 426.118C1182.89 424.556 1180.38 424.322 1178.44 425.415C1177.07 426.196 1176.5 427.29 1176.5 428.617C1176.5 429.555 1176.82 430.414 1177.31 431.273C1178.04 432.21 1179.01 433.069 1179.98 433.772C1181.52 434.943 1183.22 435.959 1184.76 437.208C1184.92 437.286 1184.92 437.286 1185 437.208C1186.21 436.271 1187.59 435.412 1188.88 434.475C1189.94 433.694 1191.07 432.913 1191.88 431.976C1193.01 430.726 1193.58 429.32 1193.26 427.836C1192.85 425.259 1189.45 423.931 1186.78 425.181Z" fill="#599AF2"/>
<path d="M1269.43 390.583C1248.39 345.832 1193.74 325.917 1147.35 346.223C1100.97 366.528 1080.32 419.245 1101.37 463.996C1121.29 506.404 1171.24 526.398 1215.92 511.324L1230.82 504.842C1271.94 482.428 1289.27 432.913 1269.43 390.583ZM1118.13 456.655C1101.29 420.807 1117.81 378.634 1154.96 362.389C1192.12 346.144 1235.84 362.077 1252.68 397.924C1269.52 433.772 1253 475.945 1215.84 492.19C1178.68 508.357 1134.89 492.424 1118.13 456.655Z" fill="#5B5B5B"/>
<path d="M1235.03 502.89L1230.66 504.764C1228.31 506.014 1225.88 507.263 1223.37 508.357C1220.86 509.45 1218.35 510.387 1215.76 511.246L1211.39 513.121L1223.53 539.05L1247.09 528.741L1235.03 502.89Z" fill="#5B5B5B"/>
<path d="M1230.66 504.764L1215.76 511.246C1218.27 510.387 1220.86 509.45 1223.37 508.357C1225.88 507.263 1228.31 506.092 1230.66 504.764Z" fill="#5B5B5B"/>
<path d="M1252.27 526.554L1247.17 528.819L1264.5 565.604L1240.86 575.913L1223.61 539.05L1218.6 541.315L1266.28 643H1306.92L1252.27 526.554Z" fill="#5B5B5B"/>
<path d="M1247.18 528.729L1223.58 539.036L1240.84 575.82L1264.44 565.513L1247.18 528.729Z" fill="#5B5B5B"/>
</svg>
