<svg width="1440" height="820" viewBox="0 0 1440 820" fill="none" xmlns="http://www.w3.org/2000/svg">
<rect width="1440" height="819.2" fill="white"/>
<g clip-path="url(#clip0)">
<path d="M1237.45 160.799H1234.57C1230.94 109.939 1189.8 70 1139.74 70C1105.25 70 1075 89.0336 1058.36 117.428C1049.59 112.592 1039.61 109.939 1028.87 109.939C998.77 109.939 973.511 131.625 967.158 160.799H965.495C935.395 160.799 911.043 185.917 911.043 216.964C911.043 248.011 935.395 273.285 965.646 273.285H1237.45C1267.55 273.285 1292.05 248.167 1292.05 216.964C1291.9 185.917 1267.55 160.799 1237.45 160.799Z" fill="#F4FAFF"/>
<path d="M1550.87 369.248H1544.69C1536.89 259.939 1448.42 174.102 1340.77 174.102C1266.61 174.102 1201.56 215.008 1165.79 276.033C1146.92 265.639 1125.46 259.939 1102.36 259.939C1037.64 259.939 983.326 306.546 969.665 369.248H966.087C901.364 369.248 849 423.231 849 489.956C849 556.681 901.364 611 966.413 611H1550.87C1615.6 611 1668.29 557.016 1668.29 489.956C1667.96 423.231 1615.6 369.248 1550.87 369.248Z" fill="#D8EDFF"/>
</g>
<defs>
<clipPath id="clip0">
<rect width="591" height="541" fill="white" transform="translate(849 70)"/>
</clipPath>
</defs>
</svg>
