<svg width="1441" height="820" viewBox="0 0 1441 820" fill="none" xmlns="http://www.w3.org/2000/svg">
<path opacity="0.8" d="M1440 0H0V820H1440V0Z" fill="white"/>
<path d="M1235.82 160.061H1232.9C1229.16 109.666 1187.13 70 1136.01 70C1100.73 70 1069.84 88.8575 1052.85 117.063C1043.91 112.267 1033.67 109.666 1022.7 109.666C991.974 109.666 966.126 131.206 959.623 160.061H957.998C927.273 160.061 902.319 184.933 902.319 215.74C902.319 246.546 927.192 271.581 958.079 271.581H1235.82C1266.55 271.581 1291.66 246.708 1291.66 215.74C1291.5 184.933 1266.63 160.061 1235.82 160.061Z" fill="#F4FAFF"/>
<path d="M1341.49 173.229C1265.73 173.229 1199.24 213.789 1162.67 274.344C1143.4 264.021 1121.46 258.413 1097.88 258.413C1031.72 258.413 976.205 304.663 962.306 366.844H958.648C892.484 366.844 839 420.409 839 486.573C839 552.737 892.484 606.627 958.973 606.627H1440.25V198.02C1410.74 182.17 1377.17 173.229 1341.49 173.229Z" fill="#D8EDFF"/>
<path opacity="0.12" d="M1361.4 458.449V318.155H1365.06V309.783H1290.12V318.155H1293.78V319.862L1285.65 340.915V420.246H1261.75L1249.15 415.776V405.941H1247.04V403.34H1243.38V405.941H1241.27V412.931L1221.6 405.941L1205.91 412.037V405.941H1203.8V403.34H1200.14V405.941H1197.94V415.126L1184.61 420.246H1158.12V340.915L1149.26 318.074H1152.26V309.702H1077.32V318.074H1081.71V458.368H945.074L947.837 456.498L944.667 453.166L927.11 464.058V458.368H924.753V453.491L920.364 447.395L915.975 453.491V458.368H913.617V464.139H914.837V544.771H900.693V592.159H1081.55V605.083H1149.09H1293.61H1361.16V592.159H1439.92V458.449H1361.4ZM925.81 464.952V464.22H927.029L925.81 464.952Z" fill="#599AF2"/>
<path d="M1091.95 368.226H1097.07V343.272C1097.07 343.272 1094.63 326.69 1091.95 343.272V368.226Z" fill="#D8EDFF"/>
<path d="M1113 368.226H1118.12V343.272C1118.12 343.272 1115.69 326.69 1113 343.272V368.226Z" fill="#D8EDFF"/>
<path d="M1133.97 368.226H1139.1V343.272C1139.1 343.272 1136.66 326.69 1133.97 343.272V368.226Z" fill="#D8EDFF"/>
<path d="M1304.1 368.226H1309.22V343.272C1309.22 343.272 1306.78 326.69 1304.1 343.272V368.226Z" fill="#D8EDFF"/>
<path d="M1325.07 368.226H1330.19V343.272C1330.19 343.272 1327.75 326.69 1325.07 343.272V368.226Z" fill="#D8EDFF"/>
<path d="M1346.12 368.226H1351.24V343.272C1351.24 343.272 1348.8 326.69 1346.12 343.272V368.226Z" fill="#D8EDFF"/>
<path d="M1165.02 596.06H1194.12V542.414C1194.12 542.414 1180.55 514.859 1165.02 542.414V596.06Z" fill="#D8EDFF"/>
<path d="M1208.27 596.06H1241.27V542.414C1241.27 542.414 1225.82 514.859 1208.27 542.414V596.06Z" fill="#D8EDFF"/>
<path d="M1255.09 596.06H1283.13V542.414C1283.13 542.414 1270.04 514.859 1255.09 542.414V596.06Z" fill="#D8EDFF"/>
<path d="M1253.54 508.844H1281.58V467.309C1281.58 467.309 1268.5 439.754 1253.54 467.309V508.844Z" fill="#D8EDFF"/>
<path d="M1161.12 508.844H1194.12V467.309C1194.12 467.309 1178.68 439.754 1161.12 467.309V508.844Z" fill="#D8EDFF"/>
<path d="M1207.29 508.763H1240.29V448.37C1240.29 448.37 1224.85 420.815 1207.29 448.37V508.763Z" fill="#D8EDFF"/>
<path d="M938.977 522.825H952.145V498.928C952.145 498.928 945.968 483.078 938.977 498.928V522.825Z" fill="#D8EDFF"/>
<path d="M982.707 522.825H995.875V498.928C995.875 498.928 989.698 483.078 982.707 498.928V522.825Z" fill="#D8EDFF"/>
<path d="M1026.52 522.825H1039.69V498.928C1039.69 498.928 1033.51 483.078 1026.52 498.928V522.825Z" fill="#D8EDFF"/>
<path d="M1067.65 522.825H1080.82V498.928C1080.82 498.928 1074.64 483.078 1067.65 498.928V522.825Z" fill="#D8EDFF"/>
<path d="M944.18 535.261H934.669V544.771H944.18V535.261Z" fill="#D8EDFF"/>
<path d="M955.803 535.261H946.293V544.771H955.803V535.261Z" fill="#D8EDFF"/>
<path d="M987.991 535.261H978.481V544.771H987.991V535.261Z" fill="#D8EDFF"/>
<path d="M999.614 535.261H990.104V544.771H999.614V535.261Z" fill="#D8EDFF"/>
<path d="M1031.8 535.261H1022.29V544.771H1031.8V535.261Z" fill="#D8EDFF"/>
<path d="M1043.43 535.261H1033.92V544.771H1043.43V535.261Z" fill="#D8EDFF"/>
<path d="M1075.61 535.261H1066.1V544.771H1075.61V535.261Z" fill="#D8EDFF"/>
<path d="M1082.52 535.261H1077.73V544.771H1082.52V535.261Z" fill="#D8EDFF"/>
<path d="M1416.67 522.825H1403.43V498.928C1403.43 498.928 1409.6 483.078 1416.59 498.928V522.825H1416.67Z" fill="#D8EDFF"/>
<path d="M1375.55 522.825H1362.38V498.928C1362.38 498.928 1368.56 483.078 1375.55 498.928V522.825Z" fill="#D8EDFF"/>
<path d="M1411.38 544.815H1420.89V535.305H1411.38V544.815Z" fill="#D8EDFF"/>
<path d="M1399.77 544.815H1409.28V535.305H1399.77V544.815Z" fill="#D8EDFF"/>
<path d="M1367.6 544.815H1377.11V535.305H1367.6V544.815Z" fill="#D8EDFF"/>
<path d="M1360.66 544.815H1365.46V535.305H1360.66V544.815Z" fill="#D8EDFF"/>
<g opacity="0.76">
<path opacity="0.76" d="M1236.07 489.58C1234.44 488.686 1232.49 488.117 1230.46 488.117C1226.88 488.117 1223.71 489.743 1221.6 492.263C1219.48 489.743 1216.23 488.117 1212.66 488.117C1210.62 488.117 1208.75 488.605 1207.05 489.58C1203.47 491.531 1201.11 495.351 1201.11 499.741C1201.11 500.96 1201.36 502.179 1201.68 503.317C1203.63 512.258 1221.6 523.475 1221.6 523.475C1221.6 523.475 1239.48 512.258 1241.43 503.317C1241.84 502.179 1242 501.041 1242 499.741C1242 495.351 1239.64 491.531 1236.07 489.58Z" fill="#EC1C24"/>
</g>
<g opacity="0.76">
<path opacity="0.76" d="M1262.56 453.491C1261.34 452.841 1259.96 452.434 1258.5 452.434C1255.9 452.434 1253.54 453.653 1252 455.523C1250.45 453.653 1248.09 452.434 1245.49 452.434C1244.03 452.434 1242.65 452.841 1241.43 453.491C1238.83 454.954 1237.04 457.718 1237.04 460.888C1237.04 461.782 1237.2 462.676 1237.45 463.489C1238.91 469.991 1251.92 478.201 1251.92 478.201C1251.92 478.201 1264.92 469.991 1266.38 463.489C1266.63 462.676 1266.79 461.782 1266.79 460.888C1266.87 457.718 1265.16 454.954 1262.56 453.491Z" fill="#EC1C24"/>
</g>
<g opacity="0.76">
<path opacity="0.76" d="M1237.77 423.742C1236.96 423.254 1235.98 423.01 1235.01 423.01C1233.22 423.01 1231.59 423.823 1230.54 425.123C1229.48 423.823 1227.86 423.01 1226.07 423.01C1225.09 423.01 1224.12 423.254 1223.3 423.742C1221.52 424.717 1220.3 426.586 1220.3 428.781C1220.3 429.431 1220.38 430 1220.62 430.569C1221.6 435.04 1230.54 440.648 1230.54 440.648C1230.54 440.648 1239.48 435.04 1240.45 430.569C1240.62 430 1240.78 429.431 1240.78 428.781C1240.78 426.668 1239.56 424.717 1237.77 423.742Z" fill="#EC1C24"/>
</g>
<path d="M1189.08 530.547C1181.2 530.709 1175.27 534.692 1172.01 542.17C1171.12 544.446 1169.98 544.934 1167.71 544.934C1158.36 544.771 1148.77 544.771 1139.42 544.934C1136.98 545.096 1135.84 544.365 1134.95 542.17C1131.29 533.717 1123.65 529.165 1115.04 531.116C1108.45 532.66 1103.57 536.562 1100.32 542.577C1099.43 544.284 1099.27 546.397 1099.27 548.266C1099.27 552.574 1101.3 556.557 1102.84 560.54C1103.74 563.141 1104.88 565.742 1104.88 568.668C1105.04 573.708 1104.71 578.829 1104.14 583.868C1103.25 593.053 1101.87 602.075 1100.73 611.179C1100.57 612.561 1100.73 613.455 1101.79 614.349C1116.82 627.11 1134.06 633.369 1155.51 633.694C1158.12 633.369 1162.83 633.125 1167.14 632.312C1182.17 629.711 1195.26 623.29 1206.48 613.13C1206.8 612.805 1207.37 611.748 1207.37 611.26C1206.32 598.987 1204.93 586.876 1203.8 574.602C1203.23 569.4 1203.23 564.279 1205.18 559.402C1206.07 556.638 1206.88 553.55 1207.45 550.786C1208.19 547.616 1208.35 544.202 1206.56 541.195C1202.74 534.53 1196.97 530.384 1189.08 530.547Z" fill="#599AF2"/>
<path d="M1164.13 565.823C1157.22 559.808 1148.77 559.646 1142.43 565.092C1133.65 572.814 1130.48 583.299 1128.77 593.785C1128.93 599.393 1130.15 603.701 1132.51 607.684C1138.93 618.413 1150.31 621.908 1160.39 619.307C1170.31 616.706 1181.85 602.807 1177.87 589.314C1175.02 580.292 1171.36 572.082 1164.13 565.823Z" fill="white"/>
<path d="M1143.48 579.397C1143.48 577.853 1144.13 576.553 1145.68 575.658C1147.87 574.358 1150.72 574.683 1152.59 576.471C1152.75 576.634 1152.83 576.715 1152.91 576.878C1152.99 577.04 1153.08 576.959 1153.16 576.878C1153.64 576.309 1154.29 575.821 1155.11 575.415C1158.2 573.952 1162.02 575.496 1162.67 578.422C1162.99 580.21 1162.42 581.836 1161.12 583.38C1160.15 584.518 1158.93 585.412 1157.71 586.307C1156.25 587.363 1154.62 588.339 1153.24 589.476C1153.16 589.558 1153.16 589.558 1152.99 589.476C1151.21 588.095 1149.34 586.875 1147.55 585.494C1146.41 584.681 1145.27 583.705 1144.46 582.567C1143.89 581.511 1143.48 580.535 1143.48 579.397Z" fill="#599AF2"/>
<path d="M1329.13 535.017C1321.25 535.18 1315.32 539.163 1312.06 546.641C1311.17 548.917 1310.03 549.404 1307.76 549.404C1298.41 549.242 1288.82 549.242 1279.47 549.404C1277.03 549.567 1275.89 548.835 1275 546.641C1271.34 538.187 1263.7 533.635 1255.09 535.586C1248.5 537.131 1243.62 540.951 1240.37 547.047C1239.48 548.754 1239.32 550.867 1239.32 552.737C1239.32 557.045 1241.35 561.028 1242.89 565.01C1243.79 567.612 1244.93 570.213 1244.93 573.139C1245.09 578.178 1244.76 583.299 1244.19 588.339C1243.3 597.523 1241.92 606.546 1240.78 615.649C1240.62 617.031 1240.78 617.925 1241.84 618.82C1256.87 631.581 1274.11 637.84 1295.56 638.165C1298.17 637.84 1302.88 637.596 1307.19 636.783C1322.22 634.182 1335.31 627.761 1346.53 617.6C1346.85 617.275 1347.42 616.218 1347.42 615.731C1346.37 603.457 1344.98 591.346 1343.85 579.072C1343.28 573.87 1343.28 568.749 1345.23 563.873C1346.12 561.109 1346.93 558.02 1347.5 555.257C1348.24 552.087 1348.4 548.673 1346.61 545.665C1342.79 538.919 1336.94 534.773 1329.13 535.017Z" fill="#80B5E5"/>
<path d="M1304.18 570.213C1297.27 564.198 1288.82 564.035 1282.48 569.481C1273.7 577.203 1270.53 587.688 1268.82 598.174C1268.98 603.782 1270.2 608.09 1272.56 612.073C1278.98 622.802 1290.36 626.298 1300.44 623.697C1310.36 621.095 1321.9 607.196 1317.92 593.703C1315.07 584.681 1311.41 576.471 1304.18 570.213Z" fill="white"/>
<path d="M1283.53 583.787C1283.53 582.242 1284.18 580.942 1285.73 580.048C1287.92 578.747 1290.77 579.072 1292.64 580.861C1292.8 581.023 1292.88 581.104 1292.96 581.267C1293.04 581.43 1293.13 581.348 1293.21 581.267C1293.69 580.698 1294.34 580.21 1295.16 579.804C1298.25 578.341 1302.07 579.885 1302.72 582.811C1303.04 584.6 1302.47 586.225 1301.17 587.77C1300.2 588.908 1298.98 589.802 1297.76 590.696C1296.3 591.752 1294.67 592.728 1293.29 593.866C1293.21 593.947 1293.21 593.947 1293.04 593.866C1291.26 592.484 1289.39 591.265 1287.6 589.883C1286.46 589.07 1285.32 588.095 1284.51 586.957C1283.86 585.9 1283.53 584.925 1283.53 583.787Z" fill="#80B5E5"/>
<path d="M1410.01 606.708H1018.15V642.31H1410.01V606.708Z" fill="white"/>
</svg>
